G04*
G04 #@! TF.GenerationSoftware,Altium Limited,Altium Designer,22.6.1 (34)*
G04*
G04 Layer_Color=255*
%FSLAX44Y44*%
%MOMM*%
G71*
G04*
G04 #@! TF.SameCoordinates,CFF22713-5BA4-4343-9F65-DF9A29BEA822*
G04*
G04*
G04 #@! TF.FilePolarity,Positive*
G04*
G01*
G75*
G04:AMPARAMS|DCode=16|XSize=0.6mm|YSize=0.9mm|CornerRadius=0.15mm|HoleSize=0mm|Usage=FLASHONLY|Rotation=90.000|XOffset=0mm|YOffset=0mm|HoleType=Round|Shape=RoundedRectangle|*
%AMROUNDEDRECTD16*
21,1,0.6000,0.6000,0,0,90.0*
21,1,0.3000,0.9000,0,0,90.0*
1,1,0.3000,0.3000,0.1500*
1,1,0.3000,0.3000,-0.1500*
1,1,0.3000,-0.3000,-0.1500*
1,1,0.3000,-0.3000,0.1500*
%
%ADD16ROUNDEDRECTD16*%
G04:AMPARAMS|DCode=17|XSize=0.6mm|YSize=0.9mm|CornerRadius=0.15mm|HoleSize=0mm|Usage=FLASHONLY|Rotation=180.000|XOffset=0mm|YOffset=0mm|HoleType=Round|Shape=RoundedRectangle|*
%AMROUNDEDRECTD17*
21,1,0.6000,0.6000,0,0,180.0*
21,1,0.3000,0.9000,0,0,180.0*
1,1,0.3000,-0.1500,0.3000*
1,1,0.3000,0.1500,0.3000*
1,1,0.3000,0.1500,-0.3000*
1,1,0.3000,-0.1500,-0.3000*
%
%ADD17ROUNDEDRECTD17*%
%ADD18R,1.2000X1.2000*%
G04:AMPARAMS|DCode=19|XSize=0.7mm|YSize=1.3mm|CornerRadius=0.175mm|HoleSize=0mm|Usage=FLASHONLY|Rotation=180.000|XOffset=0mm|YOffset=0mm|HoleType=Round|Shape=RoundedRectangle|*
%AMROUNDEDRECTD19*
21,1,0.7000,0.9500,0,0,180.0*
21,1,0.3500,1.3000,0,0,180.0*
1,1,0.3500,-0.1750,0.4750*
1,1,0.3500,0.1750,0.4750*
1,1,0.3500,0.1750,-0.4750*
1,1,0.3500,-0.1750,-0.4750*
%
%ADD19ROUNDEDRECTD19*%
%ADD20R,0.5000X1.0000*%
%ADD21O,1.0000X0.3800*%
%ADD22R,1.0000X0.3800*%
%ADD23R,1.0000X0.5000*%
G04:AMPARAMS|DCode=24|XSize=0.5mm|YSize=1mm|CornerRadius=0mm|HoleSize=0mm|Usage=FLASHONLY|Rotation=90.000|XOffset=0mm|YOffset=0mm|HoleType=Round|Shape=Octagon|*
%AMOCTAGOND24*
4,1,8,-0.5000,-0.1250,-0.5000,0.1250,-0.3750,0.2500,0.3750,0.2500,0.5000,0.1250,0.5000,-0.1250,0.3750,-0.2500,-0.3750,-0.2500,-0.5000,-0.1250,0.0*
%
%ADD24OCTAGOND24*%

%ADD25O,0.3800X1.0000*%
%ADD26R,0.3800X1.0000*%
G04:AMPARAMS|DCode=27|XSize=0.5mm|YSize=0.62mm|CornerRadius=0.0625mm|HoleSize=0mm|Usage=FLASHONLY|Rotation=90.000|XOffset=0mm|YOffset=0mm|HoleType=Round|Shape=RoundedRectangle|*
%AMROUNDEDRECTD27*
21,1,0.5000,0.4950,0,0,90.0*
21,1,0.3750,0.6200,0,0,90.0*
1,1,0.1250,0.2475,0.1875*
1,1,0.1250,0.2475,-0.1875*
1,1,0.1250,-0.2475,-0.1875*
1,1,0.1250,-0.2475,0.1875*
%
%ADD27ROUNDEDRECTD27*%
%ADD28R,0.9000X0.5000*%
G04:AMPARAMS|DCode=29|XSize=0.5mm|YSize=1mm|CornerRadius=0mm|HoleSize=0mm|Usage=FLASHONLY|Rotation=180.000|XOffset=0mm|YOffset=0mm|HoleType=Round|Shape=Octagon|*
%AMOCTAGOND29*
4,1,8,0.1250,-0.5000,-0.1250,-0.5000,-0.2500,-0.3750,-0.2500,0.3750,-0.1250,0.5000,0.1250,0.5000,0.2500,0.3750,0.2500,-0.3750,0.1250,-0.5000,0.0*
%
%ADD29OCTAGOND29*%

%ADD55O,2.2000X2.9000*%
%ADD56O,2.2000X2.7000*%
%ADD57O,2.2000X3.0000*%
%ADD58C,1.4000*%
%ADD59R,1.2000X2.2000*%
%ADD60R,2.2000X1.2000*%
%ADD61C,1.7000*%
D16*
X966943Y800217D02*
D03*
Y815217D02*
D03*
X956021Y765419D02*
D03*
Y780419D02*
D03*
X990311Y761609D02*
D03*
Y776609D02*
D03*
X967197Y780673D02*
D03*
Y765673D02*
D03*
X1024093Y683765D02*
D03*
Y668765D02*
D03*
X1003773Y661279D02*
D03*
Y676279D02*
D03*
X1004027Y700409D02*
D03*
Y685409D02*
D03*
X1019775Y730367D02*
D03*
Y745367D02*
D03*
X986501Y788787D02*
D03*
Y803787D02*
D03*
X990311Y737987D02*
D03*
Y752987D02*
D03*
X978627Y765419D02*
D03*
Y780419D02*
D03*
X1004027Y745113D02*
D03*
Y730113D02*
D03*
X1036285Y730367D02*
D03*
X1036285Y745367D02*
D03*
X952973Y728857D02*
D03*
Y713857D02*
D03*
X914873Y694807D02*
D03*
Y709807D02*
D03*
X903443Y694807D02*
D03*
Y709807D02*
D03*
X1083783Y717427D02*
D03*
Y702427D02*
D03*
X1095213Y717427D02*
D03*
Y702427D02*
D03*
X910968Y737382D02*
D03*
Y752382D02*
D03*
D17*
X984095Y722373D02*
D03*
X969095D02*
D03*
X941423Y720087D02*
D03*
X926423D02*
D03*
X969349Y710435D02*
D03*
X984349D02*
D03*
X916143Y720087D02*
D03*
X901143D02*
D03*
X1046565Y731009D02*
D03*
X1061565D02*
D03*
X1018131Y649729D02*
D03*
X1003131D02*
D03*
X1061819Y742185D02*
D03*
X1046819D02*
D03*
X1046819Y756663D02*
D03*
X1061819D02*
D03*
D18*
X955148Y812797D02*
D03*
X925398D02*
D03*
D19*
X1100653Y684527D02*
D03*
X1082653D02*
D03*
D20*
X922543Y765807D02*
D03*
X941543Y792107D02*
D03*
X932043D02*
D03*
X922543Y792107D02*
D03*
X941543Y765807D02*
D03*
X1087601Y727827D02*
D03*
X1097101Y727777D02*
D03*
X1078101Y755577D02*
D03*
X1087601D02*
D03*
X1078101Y727777D02*
D03*
D21*
X1023683Y716629D02*
D03*
X1023683Y710129D02*
D03*
Y703629D02*
D03*
X1023683Y697129D02*
D03*
X1067683Y716629D02*
D03*
Y710129D02*
D03*
Y703629D02*
D03*
D22*
Y697129D02*
D03*
D23*
X1002623Y768847D02*
D03*
X1002573Y759347D02*
D03*
X1030373Y778347D02*
D03*
Y768847D02*
D03*
X1002573Y778347D02*
D03*
D24*
X1030373Y759347D02*
D03*
D25*
X948753Y701447D02*
D03*
X942253Y701447D02*
D03*
X935753D02*
D03*
X929253Y701447D02*
D03*
X948753Y657447D02*
D03*
X942253D02*
D03*
X935753D02*
D03*
D26*
X929253D02*
D03*
D27*
X1008853Y816687D02*
D03*
Y826687D02*
D03*
X1002503Y803907D02*
D03*
Y793907D02*
D03*
D28*
X1017653Y828437D02*
D03*
Y814937D02*
D03*
X1038153Y821687D02*
D03*
X1012663Y803907D02*
D03*
Y790407D02*
D03*
X1033163Y797157D02*
D03*
X953899Y747011D02*
D03*
X974399Y753761D02*
D03*
Y740261D02*
D03*
D29*
X1097101Y755577D02*
D03*
D55*
X1091403Y838667D02*
D03*
D56*
Y788667D02*
D03*
D57*
X861533Y842007D02*
D03*
Y792007D02*
D03*
Y654047D02*
D03*
Y604047D02*
D03*
X1090133Y605317D02*
D03*
Y655317D02*
D03*
D58*
X865343Y722627D02*
D03*
Y697227D02*
D03*
Y748027D02*
D03*
D59*
X1014625Y846945D02*
D03*
X1033625D02*
D03*
D60*
X931625Y751945D02*
D03*
Y732945D02*
D03*
D61*
X963625Y694945D02*
D03*
X989625D02*
D03*
X963625Y668945D02*
D03*
X989625D02*
D03*
M02*
