G04*
G04 #@! TF.GenerationSoftware,Altium Limited,Altium Designer,22.6.1 (34)*
G04*
G04 Layer_Physical_Order=4*
G04 Layer_Color=16711680*
%FSLAX44Y44*%
%MOMM*%
G71*
G04*
G04 #@! TF.SameCoordinates,CFF22713-5BA4-4343-9F65-DF9A29BEA822*
G04*
G04*
G04 #@! TF.FilePolarity,Positive*
G04*
G01*
G75*
%ADD15C,0.2000*%
G04:AMPARAMS|DCode=16|XSize=0.6mm|YSize=0.9mm|CornerRadius=0.15mm|HoleSize=0mm|Usage=FLASHONLY|Rotation=90.000|XOffset=0mm|YOffset=0mm|HoleType=Round|Shape=RoundedRectangle|*
%AMROUNDEDRECTD16*
21,1,0.6000,0.6000,0,0,90.0*
21,1,0.3000,0.9000,0,0,90.0*
1,1,0.3000,0.3000,0.1500*
1,1,0.3000,0.3000,-0.1500*
1,1,0.3000,-0.3000,-0.1500*
1,1,0.3000,-0.3000,0.1500*
%
%ADD16ROUNDEDRECTD16*%
G04:AMPARAMS|DCode=17|XSize=0.6mm|YSize=0.9mm|CornerRadius=0.15mm|HoleSize=0mm|Usage=FLASHONLY|Rotation=180.000|XOffset=0mm|YOffset=0mm|HoleType=Round|Shape=RoundedRectangle|*
%AMROUNDEDRECTD17*
21,1,0.6000,0.6000,0,0,180.0*
21,1,0.3000,0.9000,0,0,180.0*
1,1,0.3000,-0.1500,0.3000*
1,1,0.3000,0.1500,0.3000*
1,1,0.3000,0.1500,-0.3000*
1,1,0.3000,-0.1500,-0.3000*
%
%ADD17ROUNDEDRECTD17*%
%ADD28R,0.9000X0.5000*%
%ADD51C,0.2500*%
%ADD52C,0.3000*%
%ADD53C,0.5000*%
%ADD54C,1.0000*%
%ADD55O,2.2000X2.9000*%
%ADD57O,2.2000X3.0000*%
%ADD58C,1.4000*%
%ADD59R,1.2000X2.2000*%
%ADD60R,2.2000X1.2000*%
%ADD61C,1.7000*%
%ADD62C,0.5334*%
%ADD63R,0.8000X0.8000*%
G04:AMPARAMS|DCode=64|XSize=0.5mm|YSize=0.62mm|CornerRadius=0.0625mm|HoleSize=0mm|Usage=FLASHONLY|Rotation=0.000|XOffset=0mm|YOffset=0mm|HoleType=Round|Shape=RoundedRectangle|*
%AMROUNDEDRECTD64*
21,1,0.5000,0.4950,0,0,0.0*
21,1,0.3750,0.6200,0,0,0.0*
1,1,0.1250,0.1875,-0.2475*
1,1,0.1250,-0.1875,-0.2475*
1,1,0.1250,-0.1875,0.2475*
1,1,0.1250,0.1875,0.2475*
%
%ADD64ROUNDEDRECTD64*%
%ADD65R,0.5000X0.9000*%
G04:AMPARAMS|DCode=66|XSize=2.75mm|YSize=2mm|CornerRadius=0.5mm|HoleSize=0mm|Usage=FLASHONLY|Rotation=0.000|XOffset=0mm|YOffset=0mm|HoleType=Round|Shape=RoundedRectangle|*
%AMROUNDEDRECTD66*
21,1,2.7500,1.0000,0,0,0.0*
21,1,1.7500,2.0000,0,0,0.0*
1,1,1.0000,0.8750,-0.5000*
1,1,1.0000,-0.8750,-0.5000*
1,1,1.0000,-0.8750,0.5000*
1,1,1.0000,0.8750,0.5000*
%
%ADD66ROUNDEDRECTD66*%
G04:AMPARAMS|DCode=67|XSize=2.75mm|YSize=1.8mm|CornerRadius=0.45mm|HoleSize=0mm|Usage=FLASHONLY|Rotation=0.000|XOffset=0mm|YOffset=0mm|HoleType=Round|Shape=RoundedRectangle|*
%AMROUNDEDRECTD67*
21,1,2.7500,0.9000,0,0,0.0*
21,1,1.8500,1.8000,0,0,0.0*
1,1,0.9000,0.9250,-0.4500*
1,1,0.9000,-0.9250,-0.4500*
1,1,0.9000,-0.9250,0.4500*
1,1,0.9000,0.9250,0.4500*
%
%ADD67ROUNDEDRECTD67*%
%ADD68C,0.8000*%
%ADD69R,2.6327X1.2536*%
%ADD70O,2.2000X2.8000*%
G36*
X1025085Y833405D02*
X1041468D01*
Y825577D01*
X1041727Y823609D01*
X1042487Y821774D01*
X1043695Y820199D01*
X1045270Y818991D01*
X1047105Y818231D01*
X1048555Y818040D01*
X1048573Y816778D01*
X1046735Y816536D01*
X1045023Y815826D01*
X1043552Y814698D01*
X1043152Y814177D01*
X1041466Y814066D01*
X1037299Y818234D01*
X1035962Y819127D01*
X1034386Y819440D01*
X1003369D01*
X1003074Y819735D01*
X1001160Y820528D01*
X999089D01*
X997175Y819735D01*
X995710Y818270D01*
X994918Y816357D01*
Y814285D01*
X995710Y812372D01*
X997175Y810907D01*
X999089Y810114D01*
X1001160D01*
X1003074Y810907D01*
X1003369Y811202D01*
X1028578D01*
X1029104Y809932D01*
X1028569Y809397D01*
X1027776Y807483D01*
Y806179D01*
X1026506Y805653D01*
X1025882Y806278D01*
X1023968Y807070D01*
X1021896D01*
X1021581Y806940D01*
X1021284Y806999D01*
X993444D01*
X991867Y806685D01*
X990531Y805792D01*
X981203Y796465D01*
X980310Y795128D01*
X979997Y793552D01*
Y771107D01*
X963530Y754641D01*
X962637Y753304D01*
X962324Y751728D01*
Y748889D01*
X962029Y748594D01*
X961236Y746681D01*
Y744609D01*
X962029Y742695D01*
X963493Y741231D01*
X965407Y740438D01*
X967479D01*
X969392Y741231D01*
X970857Y742695D01*
X971650Y744609D01*
Y746681D01*
X970857Y748594D01*
X970660Y748792D01*
Y750119D01*
X987029Y766488D01*
X987922Y767825D01*
X988235Y769401D01*
Y791846D01*
X995150Y798761D01*
X1018671D01*
X1019982Y797449D01*
X1021896Y796656D01*
X1023968D01*
X1025882Y797449D01*
X1027346Y798914D01*
X1027594Y799512D01*
X1028864Y799259D01*
Y791454D01*
X1027653Y790581D01*
X1027281Y790735D01*
X1026864D01*
X1024618Y792981D01*
X1023281Y793874D01*
X1021705Y794188D01*
X1003729D01*
X1002153Y793874D01*
X1000816Y792981D01*
X999045Y791211D01*
X998628D01*
X996714Y790418D01*
X995250Y788953D01*
X994457Y787039D01*
Y784968D01*
X995250Y783054D01*
X996714Y781589D01*
X998628Y780797D01*
X1000700D01*
X1002613Y781589D01*
X1004078Y783054D01*
X1004871Y784968D01*
Y785385D01*
X1005435Y785950D01*
X1019999D01*
X1021039Y784910D01*
Y784492D01*
X1021832Y782578D01*
X1023296Y781114D01*
X1025210Y780321D01*
X1027281D01*
X1029195Y781114D01*
X1029348Y781266D01*
X1030521Y780780D01*
Y753216D01*
X1010258Y732954D01*
X1009365Y731617D01*
X1009052Y730041D01*
Y714794D01*
X1007782Y714268D01*
X988167Y733883D01*
X986995Y734666D01*
X985614Y734940D01*
X961582D01*
X952026Y744497D01*
X950854Y745279D01*
X950686Y745313D01*
X950523Y745609D01*
X951090Y747219D01*
X951702Y747473D01*
X953167Y748937D01*
X953960Y750851D01*
Y752923D01*
X953167Y754836D01*
X951702Y756301D01*
X949789Y757094D01*
X947717D01*
X946435Y756562D01*
X945165Y757321D01*
Y760485D01*
X918084D01*
Y745296D01*
X918036Y745286D01*
X912414D01*
X911566Y746556D01*
X911919Y747409D01*
X912178Y749377D01*
Y759377D01*
X911919Y761345D01*
X911159Y763179D01*
X909951Y764755D01*
X908375Y765963D01*
X907346Y766390D01*
Y767764D01*
X908375Y768191D01*
X909951Y769399D01*
X911159Y770974D01*
X911919Y772809D01*
X912178Y774777D01*
Y784777D01*
X911919Y786745D01*
X911159Y788579D01*
X909951Y790155D01*
X908375Y791363D01*
X907346Y791790D01*
Y793164D01*
X908375Y793591D01*
X909951Y794799D01*
X911159Y796374D01*
X911919Y798209D01*
X912178Y800177D01*
Y810177D01*
X911919Y812145D01*
X911159Y813979D01*
X909951Y815555D01*
X908375Y816763D01*
X907346Y817190D01*
Y818564D01*
X908375Y818991D01*
X909951Y820199D01*
X911159Y821774D01*
X911480Y822550D01*
X912333Y822380D01*
X1002546D01*
X1003732Y822616D01*
X1004738Y823288D01*
X1005410Y824293D01*
X1005646Y825480D01*
Y832317D01*
X1006085Y833405D01*
X1023165D01*
Y857900D01*
X1025085D01*
Y833405D01*
D02*
G37*
G36*
X1077746Y835167D02*
X1078212Y831632D01*
X1079576Y828339D01*
X1081746Y825510D01*
X1084575Y823340D01*
X1087868Y821975D01*
X1091403Y821510D01*
X1094938Y821975D01*
X1095198Y822083D01*
X1096276Y821155D01*
Y819549D01*
X1096151Y819361D01*
X1092073D01*
Y809281D01*
X1103758D01*
Y799893D01*
X1102488Y799462D01*
X1101060Y801324D01*
X1098231Y803494D01*
X1094938Y804858D01*
X1091403Y805324D01*
X1087868Y804858D01*
X1086709Y804378D01*
X1085653Y805084D01*
Y812611D01*
X1081372D01*
X1081107Y813007D01*
Y815078D01*
X1080315Y816992D01*
X1078850Y818456D01*
X1076936Y819249D01*
X1074865D01*
X1072951Y818456D01*
X1071486Y816992D01*
X1071051Y815941D01*
X1070623Y815826D01*
X1068911Y816536D01*
X1067073Y816778D01*
X1067091Y818040D01*
X1068541Y818231D01*
X1070376Y818991D01*
X1071951Y820199D01*
X1073159Y821774D01*
X1073919Y823609D01*
X1074178Y825577D01*
Y835577D01*
X1073919Y837545D01*
X1073159Y839380D01*
X1072831Y839807D01*
X1073458Y841077D01*
X1077746D01*
Y835167D01*
D02*
G37*
G36*
X866352Y811654D02*
Y809639D01*
X866665Y808063D01*
X867558Y806726D01*
X868895Y805833D01*
X870471Y805520D01*
X876471D01*
X878047Y805833D01*
X878198Y805934D01*
X879468Y805255D01*
Y800177D01*
X879675Y798603D01*
X877835Y796762D01*
X876698D01*
X874784Y795970D01*
X873320Y794505D01*
X872527Y792591D01*
Y790520D01*
X873320Y788606D01*
X874784Y787141D01*
X876698Y786348D01*
X878394D01*
X879550Y785402D01*
X879468Y784777D01*
Y776736D01*
X878198Y776057D01*
X877815Y776313D01*
X876239Y776626D01*
X873239D01*
X871663Y776313D01*
X870326Y775420D01*
X869433Y774083D01*
X869120Y772507D01*
Y767492D01*
X867544Y765916D01*
X857994D01*
X851442Y772468D01*
Y807244D01*
X859011Y814813D01*
X863193D01*
X866352Y811654D01*
D02*
G37*
G36*
X957535Y728779D02*
X958706Y727997D01*
X960087Y727722D01*
X984119D01*
X1002795Y709046D01*
Y704963D01*
X1003069Y703582D01*
X1003852Y702411D01*
X1007816Y698447D01*
X1008987Y697664D01*
X1010368Y697390D01*
X1017218D01*
X1018599Y697664D01*
X1019770Y698447D01*
X1022835Y701512D01*
X1023618Y702683D01*
X1023892Y704064D01*
Y722599D01*
X1026661Y725368D01*
X1041468D01*
Y723977D01*
X1041727Y722009D01*
X1042487Y720174D01*
X1043695Y718599D01*
X1045270Y717391D01*
X1047105Y716631D01*
X1049073Y716372D01*
X1066573D01*
X1068541Y716631D01*
X1070376Y717391D01*
X1071951Y718599D01*
X1072911Y719851D01*
X1074033Y720105D01*
X1074490Y720069D01*
X1076646Y717913D01*
Y717588D01*
X1076940Y716109D01*
X1077778Y714855D01*
X1084969Y707664D01*
Y705247D01*
X1085263Y703768D01*
X1086100Y702515D01*
X1090400Y698215D01*
X1090401Y698215D01*
X1090526Y698131D01*
X1090624Y697863D01*
X1090698Y696488D01*
X1090277Y695857D01*
X1090031Y694622D01*
Y689672D01*
X1090277Y688437D01*
X1090976Y687390D01*
X1092023Y686691D01*
X1093258Y686445D01*
X1097008D01*
X1098243Y686691D01*
X1099290Y687390D01*
X1099989Y688437D01*
X1100235Y689672D01*
Y693907D01*
X1101923D01*
Y707987D01*
X1100912D01*
X1100299Y708904D01*
Y710975D01*
X1099507Y712889D01*
X1098042Y714353D01*
X1096128Y715146D01*
X1095173D01*
Y717700D01*
X1096063Y717877D01*
X1097317Y718715D01*
X1102585Y723983D01*
X1103758Y723497D01*
Y680897D01*
X1103610Y680693D01*
X1102518Y680106D01*
X1101875Y680445D01*
X1101669Y681483D01*
X1100776Y682820D01*
X1099439Y683713D01*
X1097863Y684026D01*
X1094863D01*
X1093287Y683713D01*
X1091950Y682820D01*
X1091057Y681483D01*
X1090744Y679907D01*
Y673907D01*
X1091057Y672331D01*
X1091950Y670994D01*
X1093287Y670101D01*
X1094863Y669788D01*
X1097863D01*
X1098163Y669847D01*
X1099472Y669305D01*
X1101544D01*
X1102488Y669696D01*
X1103758Y668848D01*
Y615123D01*
X1102488Y614870D01*
X1101960Y616145D01*
X1099790Y618974D01*
X1096961Y621144D01*
X1093668Y622508D01*
X1090133Y622974D01*
X1086598Y622508D01*
X1085354Y621993D01*
X1084298Y622699D01*
Y624171D01*
X1083985Y625747D01*
X1083092Y627084D01*
X1081755Y627977D01*
X1080179Y628290D01*
X1074179D01*
X1072603Y627977D01*
X1071266Y627084D01*
X1070373Y625747D01*
X1070213Y624942D01*
X1069859Y624730D01*
X1068828Y624486D01*
X1067785Y625182D01*
X1066209Y625496D01*
X1063406D01*
X1062846Y626335D01*
X1062846Y626335D01*
X1056541Y632640D01*
Y640255D01*
X1053865D01*
Y647021D01*
X1053571Y648500D01*
X1052733Y649753D01*
X1052733Y649754D01*
X1037095Y665392D01*
X1035841Y666230D01*
X1034362Y666524D01*
X1011919D01*
X1010441Y666230D01*
X1009187Y665392D01*
X1000266Y656471D01*
X907504D01*
X905501Y658474D01*
Y665694D01*
X906541Y665831D01*
X908375Y666591D01*
X909951Y667799D01*
X911159Y669374D01*
X911919Y671209D01*
X912178Y673177D01*
Y683177D01*
X911919Y685145D01*
X911159Y686980D01*
X909951Y688555D01*
X908375Y689763D01*
X907346Y690190D01*
Y691564D01*
X908375Y691991D01*
X909951Y693199D01*
X911159Y694774D01*
X911919Y696609D01*
X912178Y698577D01*
Y708577D01*
X911919Y710545D01*
X911159Y712380D01*
X909951Y713955D01*
X908375Y715163D01*
X907346Y715590D01*
Y716964D01*
X908375Y717391D01*
X909951Y718599D01*
X911159Y720174D01*
X911919Y722009D01*
X912178Y723977D01*
Y733977D01*
X911919Y735945D01*
X911566Y736798D01*
X912414Y738068D01*
X918084D01*
Y724405D01*
X945165D01*
Y738335D01*
X947978D01*
X957535Y728779D01*
D02*
G37*
G36*
X879726Y722014D02*
X879727Y722009D01*
X880487Y720174D01*
X881695Y718599D01*
X883270Y717391D01*
X884300Y716964D01*
Y715590D01*
X883270Y715163D01*
X881695Y713955D01*
X880487Y712380D01*
X879727Y710545D01*
X879468Y708577D01*
Y698577D01*
X879727Y696609D01*
X880487Y694774D01*
X881695Y693199D01*
X883270Y691991D01*
X884300Y691564D01*
Y690190D01*
X883270Y689763D01*
X881695Y688555D01*
X880487Y686980D01*
X879727Y685145D01*
X879468Y683177D01*
Y673177D01*
X879727Y671209D01*
X880487Y669374D01*
X881695Y667799D01*
X883270Y666591D01*
X885105Y665831D01*
X887073Y665572D01*
X897773D01*
Y656873D01*
X898067Y655394D01*
X898904Y654141D01*
X902464Y650581D01*
X902544Y648864D01*
X889431Y635751D01*
X888257Y636237D01*
Y654915D01*
X887963Y656394D01*
X887125Y657648D01*
X887125Y657648D01*
X869840Y674933D01*
X868586Y675771D01*
X867107Y676065D01*
X857652D01*
X857286Y676614D01*
X855949Y677506D01*
X854373Y677820D01*
X848373D01*
X847834Y677713D01*
X846853Y678519D01*
Y690140D01*
X857975D01*
Y714844D01*
X859148Y715330D01*
X859485Y714993D01*
X861661Y713737D01*
X864087Y713087D01*
X866599D01*
X869025Y713737D01*
X871201Y714993D01*
X872977Y716769D01*
X874233Y718945D01*
X874883Y721371D01*
Y722716D01*
X878503D01*
X878694Y722754D01*
X879726Y722014D01*
D02*
G37*
G36*
X1056220Y622031D02*
X1056090Y621377D01*
Y618377D01*
X1056403Y616801D01*
X1056874Y616096D01*
X1056376Y615764D01*
X1055483Y614427D01*
X1055170Y612851D01*
Y606851D01*
X1055368Y605854D01*
X1054534Y604584D01*
X1045735D01*
Y627175D01*
X1051076D01*
X1056220Y622031D01*
D02*
G37*
G36*
X848342Y596512D02*
X849706Y593218D01*
X851876Y590390D01*
X854705Y588220D01*
X857998Y586856D01*
X861533Y586390D01*
X865068Y586856D01*
X868361Y588220D01*
X871190Y590390D01*
X873360Y593218D01*
X873708Y594059D01*
X874882Y594545D01*
X875571Y594259D01*
X877643D01*
X879556Y595052D01*
X881021Y596517D01*
X881077Y596651D01*
X881599Y597000D01*
X885687D01*
X893022Y589665D01*
Y589119D01*
X893022Y589119D01*
Y586119D01*
X893098Y585738D01*
X892292Y584757D01*
X846853D01*
Y598092D01*
X848123Y598175D01*
X848342Y596512D01*
D02*
G37*
G36*
X878076Y853352D02*
X878314Y853326D01*
X878551Y853286D01*
X878762Y853234D01*
X878960Y853155D01*
X879144Y853089D01*
X879316Y853009D01*
X879461Y852930D01*
X879606Y852838D01*
X879724Y852759D01*
X879830Y852693D01*
X879909Y852627D01*
X879975Y852561D01*
X880027Y852522D01*
X880054Y852495D01*
X880067Y852482D01*
X880212Y852311D01*
X880344Y852126D01*
X880462Y851915D01*
X880568Y851718D01*
X880660Y851494D01*
X880739Y851283D01*
X880858Y850861D01*
X880911Y850663D01*
X880950Y850492D01*
X880977Y850320D01*
X881003Y850175D01*
X881016Y850057D01*
Y849977D01*
X881029Y849925D01*
Y849898D01*
X879790Y849740D01*
X879764Y850149D01*
X879711Y850505D01*
X879658Y850663D01*
X879619Y850808D01*
X879566Y850940D01*
X879513Y851072D01*
X879474Y851177D01*
X879421Y851269D01*
X879368Y851335D01*
X879329Y851401D01*
X879302Y851454D01*
X879276Y851494D01*
X879250Y851507D01*
Y851520D01*
X879144Y851625D01*
X879039Y851731D01*
X878801Y851889D01*
X878564Y851994D01*
X878353Y852074D01*
X878156Y852126D01*
X878063Y852139D01*
X877997D01*
X877931Y852153D01*
X877707D01*
X877562Y852126D01*
X877312Y852060D01*
X877088Y851968D01*
X876890Y851863D01*
X876732Y851757D01*
X876613Y851665D01*
X876547Y851599D01*
X876521Y851586D01*
Y851573D01*
X876336Y851348D01*
X876205Y851098D01*
X876112Y850847D01*
X876046Y850610D01*
X876007Y850399D01*
X875993Y850307D01*
Y850228D01*
X875980Y850162D01*
Y850109D01*
Y850083D01*
Y850070D01*
X876007Y849767D01*
X876059Y849463D01*
X876152Y849186D01*
X876244Y848923D01*
X876336Y848686D01*
X876389Y848593D01*
X876429Y848514D01*
X876455Y848448D01*
X876481Y848396D01*
X876508Y848369D01*
Y848356D01*
X876613Y848171D01*
X876758Y847974D01*
X876903Y847776D01*
X877075Y847565D01*
X877444Y847130D01*
X877813Y846708D01*
X877997Y846510D01*
X878169Y846326D01*
X878327Y846168D01*
X878459Y846023D01*
X878577Y845904D01*
X878656Y845825D01*
X878722Y845759D01*
X878736Y845746D01*
X878999Y845482D01*
X879237Y845219D01*
X879461Y844981D01*
X879658Y844744D01*
X879843Y844520D01*
X880001Y844309D01*
X880146Y844124D01*
X880278Y843940D01*
X880396Y843782D01*
X880489Y843637D01*
X880568Y843518D01*
X880634Y843413D01*
X880673Y843334D01*
X880713Y843281D01*
X880726Y843241D01*
X880739Y843228D01*
X880832Y843030D01*
X880911Y842846D01*
X881042Y842490D01*
X881135Y842160D01*
X881201Y841883D01*
X881214Y841752D01*
X881227Y841646D01*
X881240Y841554D01*
X881253Y841461D01*
Y841409D01*
Y841356D01*
Y841330D01*
Y841317D01*
X874741D01*
Y842727D01*
X879579D01*
X879421Y843017D01*
X879342Y843149D01*
X879263Y843268D01*
X879184Y843373D01*
X879131Y843452D01*
X879091Y843505D01*
X879078Y843518D01*
X879012Y843597D01*
X878920Y843703D01*
X878722Y843927D01*
X878498Y844177D01*
X878248Y844428D01*
X878024Y844665D01*
X877931Y844770D01*
X877839Y844849D01*
X877773Y844929D01*
X877720Y844981D01*
X877681Y845021D01*
X877668Y845034D01*
X877365Y845350D01*
X877088Y845654D01*
X876824Y845944D01*
X876600Y846207D01*
X876389Y846458D01*
X876205Y846695D01*
X876033Y846893D01*
X875888Y847091D01*
X875756Y847262D01*
X875651Y847407D01*
X875572Y847539D01*
X875493Y847644D01*
X875440Y847723D01*
X875400Y847776D01*
X875387Y847816D01*
X875374Y847829D01*
X875268Y848027D01*
X875163Y848224D01*
X875018Y848620D01*
X874899Y848989D01*
X874834Y849332D01*
X874807Y849477D01*
X874781Y849608D01*
X874768Y849727D01*
Y849833D01*
X874754Y849912D01*
Y849977D01*
Y850017D01*
Y850030D01*
X874768Y850267D01*
X874794Y850505D01*
X874820Y850729D01*
X874873Y850940D01*
X875005Y851335D01*
X875071Y851520D01*
X875137Y851678D01*
X875216Y851823D01*
X875282Y851955D01*
X875348Y852074D01*
X875414Y852166D01*
X875466Y852245D01*
X875493Y852311D01*
X875519Y852337D01*
X875532Y852350D01*
X875690Y852535D01*
X875848Y852680D01*
X876033Y852825D01*
X876218Y852944D01*
X876402Y853036D01*
X876600Y853115D01*
X876785Y853181D01*
X876969Y853234D01*
X877140Y853286D01*
X877299Y853313D01*
X877444Y853339D01*
X877576Y853352D01*
X877681Y853365D01*
X877826D01*
X878076Y853352D01*
D02*
G37*
G36*
X885142Y853062D02*
X885301Y852772D01*
X885485Y852495D01*
X885656Y852258D01*
X885815Y852034D01*
X885894Y851955D01*
X885960Y851876D01*
X885999Y851810D01*
X886039Y851770D01*
X886065Y851744D01*
X886078Y851731D01*
X886368Y851428D01*
X886672Y851164D01*
X886975Y850927D01*
X887238Y850716D01*
X887476Y850557D01*
X887581Y850492D01*
X887660Y850439D01*
X887739Y850386D01*
X887792Y850360D01*
X887818Y850347D01*
X887831Y850333D01*
Y848923D01*
X887607Y849028D01*
X887383Y849147D01*
X887172Y849279D01*
X886975Y849398D01*
X886803Y849516D01*
X886672Y849608D01*
X886619Y849635D01*
X886579Y849661D01*
X886566Y849688D01*
X886553D01*
X886302Y849885D01*
X886078Y850070D01*
X885881Y850241D01*
X885722Y850386D01*
X885591Y850518D01*
X885498Y850610D01*
X885432Y850676D01*
X885419Y850703D01*
Y841317D01*
X884220D01*
Y853365D01*
X885010D01*
X885142Y853062D01*
D02*
G37*
G36*
X893909Y847921D02*
X896585D01*
Y846550D01*
X893909D01*
Y843254D01*
X892762D01*
Y846550D01*
X890086D01*
Y847921D01*
X892762D01*
Y851190D01*
X893909D01*
Y847921D01*
D02*
G37*
G36*
X860323Y633185D02*
X860440Y632971D01*
X860575Y632767D01*
X860702Y632593D01*
X860818Y632428D01*
X860876Y632370D01*
X860925Y632312D01*
X860954Y632263D01*
X860983Y632234D01*
X861003Y632215D01*
X861012Y632205D01*
X861226Y631982D01*
X861449Y631788D01*
X861672Y631613D01*
X861866Y631458D01*
X862041Y631341D01*
X862118Y631293D01*
X862177Y631254D01*
X862235Y631215D01*
X862273Y631196D01*
X862293Y631186D01*
X862303Y631176D01*
Y630138D01*
X862138Y630216D01*
X861973Y630303D01*
X861817Y630400D01*
X861672Y630487D01*
X861546Y630575D01*
X861449Y630643D01*
X861410Y630662D01*
X861381Y630681D01*
X861371Y630701D01*
X861361D01*
X861177Y630846D01*
X861012Y630982D01*
X860867Y631108D01*
X860750Y631215D01*
X860653Y631312D01*
X860585Y631380D01*
X860537Y631429D01*
X860527Y631448D01*
Y624540D01*
X859644D01*
Y633408D01*
X860226D01*
X860323Y633185D01*
D02*
G37*
G36*
X875547Y624540D02*
X874586D01*
Y628139D01*
X872733D01*
X872461Y628149D01*
X872209Y628168D01*
X871986Y628207D01*
X871773Y628256D01*
X871579Y628314D01*
X871414Y628372D01*
X871258Y628440D01*
X871123Y628518D01*
X870996Y628586D01*
X870899Y628654D01*
X870812Y628712D01*
X870744Y628770D01*
X870696Y628819D01*
X870657Y628857D01*
X870637Y628877D01*
X870628Y628886D01*
X870521Y629032D01*
X870424Y629187D01*
X870346Y629352D01*
X870278Y629507D01*
X870210Y629672D01*
X870162Y629837D01*
X870094Y630148D01*
X870065Y630284D01*
X870045Y630420D01*
X870036Y630536D01*
X870026Y630643D01*
X870016Y630720D01*
Y630788D01*
Y630827D01*
Y630837D01*
X870036Y631157D01*
X870075Y631458D01*
X870133Y631720D01*
X870172Y631836D01*
X870201Y631933D01*
X870239Y632030D01*
X870278Y632118D01*
X870307Y632185D01*
X870337Y632253D01*
X870356Y632302D01*
X870375Y632331D01*
X870395Y632350D01*
Y632360D01*
X870550Y632574D01*
X870715Y632758D01*
X870880Y632903D01*
X871035Y633020D01*
X871181Y633097D01*
X871287Y633156D01*
X871336Y633175D01*
X871365Y633195D01*
X871385Y633204D01*
X871394D01*
X871481Y633233D01*
X871588Y633262D01*
X871811Y633301D01*
X872044Y633340D01*
X872277Y633359D01*
X872491Y633369D01*
X872578D01*
X872665Y633379D01*
X875547D01*
Y624540D01*
D02*
G37*
G36*
X869318Y632341D02*
X866931D01*
Y624540D01*
X865970D01*
Y632341D01*
X863574D01*
Y633379D01*
X869318D01*
Y632341D01*
D02*
G37*
G36*
X855210Y633398D02*
X855414Y633359D01*
X855598Y633301D01*
X855773Y633233D01*
X855928Y633146D01*
X856073Y633049D01*
X856209Y632942D01*
X856326Y632836D01*
X856432Y632729D01*
X856520Y632622D01*
X856597Y632525D01*
X856656Y632438D01*
X856704Y632370D01*
X856743Y632312D01*
X856762Y632273D01*
X856772Y632263D01*
X856879Y632040D01*
X856966Y631788D01*
X857044Y631526D01*
X857112Y631254D01*
X857170Y630973D01*
X857218Y630691D01*
X857257Y630420D01*
X857286Y630148D01*
X857315Y629896D01*
X857335Y629663D01*
X857345Y629449D01*
X857354Y629265D01*
X857364Y629110D01*
Y629051D01*
Y628993D01*
Y628954D01*
Y628925D01*
Y628906D01*
Y628896D01*
X857354Y628450D01*
X857335Y628033D01*
X857306Y627654D01*
X857257Y627305D01*
X857209Y626985D01*
X857150Y626703D01*
X857092Y626441D01*
X857034Y626218D01*
X856976Y626024D01*
X856908Y625849D01*
X856859Y625714D01*
X856811Y625597D01*
X856762Y625510D01*
X856733Y625452D01*
X856714Y625413D01*
X856704Y625403D01*
X856578Y625229D01*
X856442Y625073D01*
X856306Y624937D01*
X856161Y624821D01*
X856015Y624724D01*
X855879Y624637D01*
X855744Y624578D01*
X855608Y624520D01*
X855491Y624481D01*
X855375Y624452D01*
X855278Y624423D01*
X855191Y624413D01*
X855113Y624404D01*
X855064Y624394D01*
X855016D01*
X854802Y624404D01*
X854599Y624442D01*
X854414Y624501D01*
X854240Y624569D01*
X854075Y624656D01*
X853929Y624753D01*
X853803Y624860D01*
X853687Y624967D01*
X853580Y625073D01*
X853493Y625180D01*
X853415Y625277D01*
X853347Y625364D01*
X853298Y625432D01*
X853269Y625490D01*
X853250Y625529D01*
X853240Y625539D01*
X853133Y625762D01*
X853046Y626014D01*
X852959Y626276D01*
X852891Y626548D01*
X852833Y626829D01*
X852784Y627101D01*
X852745Y627383D01*
X852716Y627645D01*
X852687Y627897D01*
X852668Y628139D01*
X852658Y628353D01*
X852648Y628537D01*
X852639Y628683D01*
Y628751D01*
Y628799D01*
Y628838D01*
Y628867D01*
Y628886D01*
Y628896D01*
X852648Y629342D01*
X852668Y629760D01*
X852707Y630138D01*
X852755Y630497D01*
X852804Y630817D01*
X852871Y631108D01*
X852930Y631380D01*
X852998Y631613D01*
X853066Y631817D01*
X853133Y631991D01*
X853201Y632147D01*
X853250Y632263D01*
X853298Y632360D01*
X853337Y632428D01*
X853357Y632467D01*
X853366Y632477D01*
X853483Y632641D01*
X853609Y632787D01*
X853735Y632913D01*
X853871Y633020D01*
X854007Y633107D01*
X854143Y633185D01*
X854278Y633243D01*
X854405Y633292D01*
X854531Y633330D01*
X854637Y633359D01*
X854734Y633379D01*
X854822Y633398D01*
X854899D01*
X854948Y633408D01*
X854996D01*
X855210Y633398D01*
D02*
G37*
G36*
X849582D02*
X849786Y633359D01*
X849970Y633301D01*
X850145Y633233D01*
X850300Y633146D01*
X850446Y633049D01*
X850582Y632942D01*
X850698Y632836D01*
X850805Y632729D01*
X850892Y632622D01*
X850970Y632525D01*
X851028Y632438D01*
X851077Y632370D01*
X851115Y632312D01*
X851135Y632273D01*
X851144Y632263D01*
X851251Y632040D01*
X851339Y631788D01*
X851416Y631526D01*
X851484Y631254D01*
X851542Y630973D01*
X851591Y630691D01*
X851630Y630420D01*
X851659Y630148D01*
X851688Y629896D01*
X851707Y629663D01*
X851717Y629449D01*
X851727Y629265D01*
X851736Y629110D01*
Y629051D01*
Y628993D01*
Y628954D01*
Y628925D01*
Y628906D01*
Y628896D01*
X851727Y628450D01*
X851707Y628033D01*
X851678Y627654D01*
X851630Y627305D01*
X851581Y626985D01*
X851523Y626703D01*
X851465Y626441D01*
X851406Y626218D01*
X851348Y626024D01*
X851280Y625849D01*
X851232Y625714D01*
X851183Y625597D01*
X851135Y625510D01*
X851106Y625452D01*
X851086Y625413D01*
X851077Y625403D01*
X850950Y625229D01*
X850815Y625073D01*
X850679Y624937D01*
X850533Y624821D01*
X850388Y624724D01*
X850252Y624637D01*
X850116Y624578D01*
X849980Y624520D01*
X849864Y624481D01*
X849747Y624452D01*
X849650Y624423D01*
X849563Y624413D01*
X849485Y624404D01*
X849437Y624394D01*
X849388D01*
X849175Y624404D01*
X848971Y624442D01*
X848787Y624501D01*
X848612Y624569D01*
X848447Y624656D01*
X848301Y624753D01*
X848175Y624860D01*
X848059Y624967D01*
X847952Y625073D01*
X847865Y625180D01*
X847787Y625277D01*
X847719Y625364D01*
X847671Y625432D01*
X847642Y625490D01*
X847622Y625529D01*
X847613Y625539D01*
X847506Y625762D01*
X847419Y626014D01*
X847331Y626276D01*
X847263Y626548D01*
X847205Y626829D01*
X847157Y627101D01*
X847118Y627383D01*
X847089Y627645D01*
X847059Y627897D01*
X847040Y628139D01*
X847030Y628353D01*
X847021Y628537D01*
X847011Y628683D01*
Y628751D01*
Y628799D01*
Y628838D01*
Y628867D01*
Y628886D01*
Y628896D01*
X847021Y629342D01*
X847040Y629760D01*
X847079Y630138D01*
X847128Y630497D01*
X847176Y630817D01*
X847244Y631108D01*
X847302Y631380D01*
X847370Y631613D01*
X847438Y631817D01*
X847506Y631991D01*
X847574Y632147D01*
X847622Y632263D01*
X847671Y632360D01*
X847710Y632428D01*
X847729Y632467D01*
X847739Y632477D01*
X847855Y632641D01*
X847981Y632787D01*
X848107Y632913D01*
X848243Y633020D01*
X848379Y633107D01*
X848515Y633185D01*
X848651Y633243D01*
X848777Y633292D01*
X848903Y633330D01*
X849010Y633359D01*
X849107Y633379D01*
X849194Y633398D01*
X849272D01*
X849320Y633408D01*
X849369D01*
X849582Y633398D01*
D02*
G37*
G36*
X1050238Y602028D02*
X1050513Y601998D01*
X1050788Y601952D01*
X1051032Y601891D01*
X1051261Y601799D01*
X1051475Y601723D01*
X1051673Y601632D01*
X1051841Y601540D01*
X1052009Y601433D01*
X1052147Y601341D01*
X1052269Y601265D01*
X1052360Y601189D01*
X1052437Y601112D01*
X1052498Y601067D01*
X1052528Y601036D01*
X1052543Y601021D01*
X1052711Y600822D01*
X1052864Y600609D01*
X1053001Y600364D01*
X1053124Y600135D01*
X1053231Y599876D01*
X1053322Y599632D01*
X1053459Y599143D01*
X1053521Y598914D01*
X1053566Y598716D01*
X1053597Y598517D01*
X1053627Y598349D01*
X1053643Y598212D01*
Y598120D01*
X1053658Y598059D01*
Y598029D01*
X1052223Y597846D01*
X1052192Y598319D01*
X1052131Y598731D01*
X1052070Y598914D01*
X1052025Y599082D01*
X1051963Y599235D01*
X1051902Y599387D01*
X1051857Y599510D01*
X1051796Y599616D01*
X1051734Y599693D01*
X1051689Y599769D01*
X1051658Y599830D01*
X1051628Y599876D01*
X1051597Y599891D01*
Y599907D01*
X1051475Y600029D01*
X1051353Y600151D01*
X1051078Y600334D01*
X1050803Y600456D01*
X1050559Y600548D01*
X1050330Y600609D01*
X1050223Y600624D01*
X1050147D01*
X1050070Y600639D01*
X1049811D01*
X1049643Y600609D01*
X1049353Y600532D01*
X1049093Y600425D01*
X1048865Y600303D01*
X1048681Y600181D01*
X1048544Y600074D01*
X1048468Y599998D01*
X1048437Y599983D01*
Y599967D01*
X1048223Y599708D01*
X1048071Y599418D01*
X1047964Y599128D01*
X1047888Y598853D01*
X1047842Y598609D01*
X1047827Y598502D01*
Y598410D01*
X1047811Y598334D01*
Y598273D01*
Y598242D01*
Y598227D01*
X1047842Y597876D01*
X1047903Y597525D01*
X1048010Y597205D01*
X1048117Y596899D01*
X1048223Y596624D01*
X1048285Y596518D01*
X1048330Y596426D01*
X1048361Y596350D01*
X1048391Y596289D01*
X1048422Y596258D01*
Y596243D01*
X1048544Y596029D01*
X1048712Y595800D01*
X1048880Y595571D01*
X1049078Y595327D01*
X1049506Y594823D01*
X1049933Y594335D01*
X1050147Y594106D01*
X1050345Y593892D01*
X1050528Y593709D01*
X1050681Y593541D01*
X1050818Y593403D01*
X1050910Y593312D01*
X1050986Y593236D01*
X1051002Y593220D01*
X1051307Y592915D01*
X1051582Y592610D01*
X1051841Y592335D01*
X1052070Y592060D01*
X1052284Y591800D01*
X1052467Y591556D01*
X1052635Y591343D01*
X1052788Y591129D01*
X1052925Y590946D01*
X1053032Y590778D01*
X1053124Y590640D01*
X1053200Y590518D01*
X1053246Y590427D01*
X1053291Y590366D01*
X1053307Y590320D01*
X1053322Y590304D01*
X1053429Y590076D01*
X1053521Y589862D01*
X1053673Y589450D01*
X1053780Y589068D01*
X1053856Y588747D01*
X1053872Y588595D01*
X1053887Y588473D01*
X1053902Y588366D01*
X1053917Y588259D01*
Y588198D01*
Y588137D01*
Y588106D01*
Y588091D01*
X1046376D01*
Y589724D01*
X1051979D01*
X1051796Y590060D01*
X1051704Y590213D01*
X1051612Y590350D01*
X1051521Y590472D01*
X1051460Y590564D01*
X1051414Y590625D01*
X1051399Y590640D01*
X1051322Y590732D01*
X1051215Y590854D01*
X1050986Y591114D01*
X1050727Y591404D01*
X1050437Y591694D01*
X1050177Y591968D01*
X1050070Y592091D01*
X1049964Y592182D01*
X1049887Y592274D01*
X1049826Y592335D01*
X1049781Y592381D01*
X1049765Y592396D01*
X1049414Y592762D01*
X1049093Y593113D01*
X1048788Y593449D01*
X1048529Y593755D01*
X1048285Y594045D01*
X1048071Y594319D01*
X1047872Y594548D01*
X1047704Y594777D01*
X1047552Y594976D01*
X1047430Y595144D01*
X1047338Y595296D01*
X1047246Y595418D01*
X1047185Y595510D01*
X1047140Y595571D01*
X1047124Y595617D01*
X1047109Y595632D01*
X1046987Y595861D01*
X1046865Y596090D01*
X1046697Y596548D01*
X1046560Y596976D01*
X1046483Y597372D01*
X1046453Y597540D01*
X1046422Y597693D01*
X1046407Y597830D01*
Y597952D01*
X1046392Y598044D01*
Y598120D01*
Y598166D01*
Y598181D01*
X1046407Y598456D01*
X1046437Y598731D01*
X1046468Y598991D01*
X1046529Y599235D01*
X1046682Y599693D01*
X1046758Y599907D01*
X1046834Y600090D01*
X1046926Y600258D01*
X1047002Y600410D01*
X1047078Y600548D01*
X1047155Y600654D01*
X1047216Y600746D01*
X1047246Y600822D01*
X1047277Y600853D01*
X1047292Y600868D01*
X1047475Y601082D01*
X1047659Y601250D01*
X1047872Y601418D01*
X1048086Y601555D01*
X1048300Y601662D01*
X1048529Y601754D01*
X1048742Y601830D01*
X1048956Y601891D01*
X1049155Y601952D01*
X1049338Y601983D01*
X1049506Y602013D01*
X1049658Y602028D01*
X1049781Y602044D01*
X1049948D01*
X1050238Y602028D01*
D02*
G37*
G36*
X1058421Y601693D02*
X1058604Y601357D01*
X1058818Y601036D01*
X1059016Y600761D01*
X1059199Y600502D01*
X1059291Y600410D01*
X1059367Y600319D01*
X1059413Y600242D01*
X1059459Y600196D01*
X1059489Y600166D01*
X1059504Y600151D01*
X1059840Y599800D01*
X1060191Y599494D01*
X1060543Y599220D01*
X1060848Y598975D01*
X1061123Y598792D01*
X1061245Y598716D01*
X1061336Y598655D01*
X1061428Y598594D01*
X1061489Y598563D01*
X1061520Y598548D01*
X1061535Y598533D01*
Y596899D01*
X1061275Y597021D01*
X1061016Y597159D01*
X1060772Y597311D01*
X1060543Y597449D01*
X1060344Y597586D01*
X1060191Y597693D01*
X1060130Y597724D01*
X1060085Y597754D01*
X1060069Y597785D01*
X1060054D01*
X1059764Y598014D01*
X1059504Y598227D01*
X1059276Y598426D01*
X1059092Y598594D01*
X1058940Y598746D01*
X1058833Y598853D01*
X1058756Y598929D01*
X1058741Y598960D01*
Y588091D01*
X1057352D01*
Y602044D01*
X1058268D01*
X1058421Y601693D01*
D02*
G37*
G36*
X1068038Y592258D02*
X1063748D01*
Y593968D01*
X1068038D01*
Y592258D01*
D02*
G37*
G36*
X1073381Y602028D02*
X1073701Y601967D01*
X1073991Y601876D01*
X1074266Y601769D01*
X1074510Y601632D01*
X1074739Y601479D01*
X1074953Y601311D01*
X1075136Y601143D01*
X1075304Y600975D01*
X1075442Y600807D01*
X1075564Y600654D01*
X1075655Y600517D01*
X1075732Y600410D01*
X1075793Y600319D01*
X1075823Y600258D01*
X1075838Y600242D01*
X1076006Y599891D01*
X1076144Y599494D01*
X1076266Y599082D01*
X1076373Y598655D01*
X1076464Y598212D01*
X1076541Y597769D01*
X1076602Y597342D01*
X1076648Y596914D01*
X1076693Y596518D01*
X1076724Y596151D01*
X1076739Y595815D01*
X1076754Y595525D01*
X1076770Y595281D01*
Y595190D01*
Y595098D01*
Y595037D01*
Y594991D01*
Y594961D01*
Y594945D01*
X1076754Y594243D01*
X1076724Y593587D01*
X1076678Y592991D01*
X1076602Y592442D01*
X1076525Y591938D01*
X1076434Y591495D01*
X1076342Y591083D01*
X1076251Y590732D01*
X1076159Y590427D01*
X1076052Y590152D01*
X1075976Y589938D01*
X1075900Y589755D01*
X1075823Y589618D01*
X1075778Y589526D01*
X1075747Y589465D01*
X1075732Y589450D01*
X1075533Y589175D01*
X1075320Y588931D01*
X1075106Y588717D01*
X1074877Y588534D01*
X1074648Y588381D01*
X1074434Y588244D01*
X1074220Y588152D01*
X1074007Y588060D01*
X1073823Y587999D01*
X1073640Y587954D01*
X1073488Y587908D01*
X1073350Y587893D01*
X1073228Y587877D01*
X1073152Y587862D01*
X1073075D01*
X1072740Y587877D01*
X1072419Y587938D01*
X1072129Y588030D01*
X1071854Y588137D01*
X1071595Y588274D01*
X1071366Y588427D01*
X1071167Y588595D01*
X1070984Y588763D01*
X1070816Y588931D01*
X1070679Y589099D01*
X1070557Y589251D01*
X1070450Y589389D01*
X1070374Y589496D01*
X1070328Y589587D01*
X1070297Y589648D01*
X1070282Y589663D01*
X1070114Y590014D01*
X1069977Y590411D01*
X1069839Y590824D01*
X1069732Y591251D01*
X1069641Y591694D01*
X1069564Y592121D01*
X1069503Y592564D01*
X1069458Y592976D01*
X1069412Y593373D01*
X1069381Y593755D01*
X1069366Y594090D01*
X1069351Y594380D01*
X1069335Y594609D01*
Y594716D01*
Y594793D01*
Y594854D01*
Y594899D01*
Y594930D01*
Y594945D01*
X1069351Y595647D01*
X1069381Y596304D01*
X1069442Y596899D01*
X1069519Y597464D01*
X1069595Y597968D01*
X1069702Y598426D01*
X1069793Y598853D01*
X1069900Y599220D01*
X1070007Y599540D01*
X1070114Y599815D01*
X1070221Y600059D01*
X1070297Y600242D01*
X1070374Y600395D01*
X1070435Y600502D01*
X1070465Y600563D01*
X1070480Y600578D01*
X1070664Y600838D01*
X1070862Y601067D01*
X1071060Y601265D01*
X1071274Y601433D01*
X1071488Y601570D01*
X1071702Y601693D01*
X1071915Y601784D01*
X1072114Y601860D01*
X1072312Y601922D01*
X1072480Y601967D01*
X1072633Y601998D01*
X1072770Y602028D01*
X1072892D01*
X1072969Y602044D01*
X1073045D01*
X1073381Y602028D01*
D02*
G37*
G36*
X1066776Y857147D02*
X1067039Y857117D01*
X1067301Y857074D01*
X1067534Y857015D01*
X1067753Y856928D01*
X1067957Y856855D01*
X1068147Y856768D01*
X1068307Y856680D01*
X1068467Y856578D01*
X1068599Y856490D01*
X1068715Y856418D01*
X1068803Y856345D01*
X1068876Y856272D01*
X1068934Y856228D01*
X1068963Y856199D01*
X1068978Y856184D01*
X1069138Y855995D01*
X1069284Y855791D01*
X1069415Y855557D01*
X1069532Y855339D01*
X1069634Y855091D01*
X1069721Y854858D01*
X1069853Y854391D01*
X1069911Y854172D01*
X1069955Y853983D01*
X1069984Y853793D01*
X1070013Y853633D01*
X1070027Y853502D01*
Y853414D01*
X1070042Y853356D01*
Y853327D01*
X1068672Y853152D01*
X1068643Y853604D01*
X1068584Y853997D01*
X1068526Y854172D01*
X1068482Y854333D01*
X1068424Y854479D01*
X1068365Y854624D01*
X1068322Y854741D01*
X1068263Y854843D01*
X1068205Y854916D01*
X1068161Y854989D01*
X1068132Y855047D01*
X1068103Y855091D01*
X1068074Y855106D01*
Y855120D01*
X1067957Y855237D01*
X1067841Y855353D01*
X1067578Y855528D01*
X1067316Y855645D01*
X1067082Y855732D01*
X1066864Y855791D01*
X1066762Y855805D01*
X1066689D01*
X1066616Y855820D01*
X1066368D01*
X1066208Y855791D01*
X1065931Y855718D01*
X1065683Y855616D01*
X1065464Y855499D01*
X1065289Y855383D01*
X1065158Y855280D01*
X1065085Y855208D01*
X1065056Y855193D01*
Y855178D01*
X1064852Y854930D01*
X1064706Y854653D01*
X1064604Y854377D01*
X1064531Y854114D01*
X1064487Y853881D01*
X1064473Y853779D01*
Y853691D01*
X1064458Y853618D01*
Y853560D01*
Y853531D01*
Y853516D01*
X1064487Y853181D01*
X1064546Y852846D01*
X1064648Y852540D01*
X1064750Y852248D01*
X1064852Y851985D01*
X1064910Y851883D01*
X1064954Y851796D01*
X1064983Y851723D01*
X1065012Y851665D01*
X1065041Y851636D01*
Y851621D01*
X1065158Y851417D01*
X1065318Y851198D01*
X1065479Y850980D01*
X1065668Y850746D01*
X1066077Y850265D01*
X1066485Y849799D01*
X1066689Y849580D01*
X1066878Y849376D01*
X1067053Y849201D01*
X1067199Y849040D01*
X1067330Y848909D01*
X1067418Y848822D01*
X1067491Y848749D01*
X1067505Y848734D01*
X1067797Y848443D01*
X1068059Y848151D01*
X1068307Y847889D01*
X1068526Y847626D01*
X1068730Y847378D01*
X1068905Y847145D01*
X1069065Y846941D01*
X1069211Y846737D01*
X1069342Y846562D01*
X1069444Y846402D01*
X1069532Y846270D01*
X1069605Y846154D01*
X1069649Y846066D01*
X1069692Y846008D01*
X1069707Y845964D01*
X1069721Y845949D01*
X1069823Y845731D01*
X1069911Y845527D01*
X1070057Y845133D01*
X1070159Y844769D01*
X1070232Y844462D01*
X1070246Y844317D01*
X1070261Y844200D01*
X1070275Y844098D01*
X1070290Y843996D01*
Y843938D01*
Y843879D01*
Y843850D01*
Y843835D01*
X1063088D01*
Y845396D01*
X1068438D01*
X1068263Y845716D01*
X1068176Y845862D01*
X1068088Y845993D01*
X1068001Y846110D01*
X1067943Y846197D01*
X1067899Y846256D01*
X1067884Y846270D01*
X1067811Y846358D01*
X1067709Y846474D01*
X1067491Y846722D01*
X1067243Y846999D01*
X1066966Y847276D01*
X1066718Y847539D01*
X1066616Y847655D01*
X1066514Y847743D01*
X1066441Y847830D01*
X1066383Y847889D01*
X1066339Y847932D01*
X1066324Y847947D01*
X1065989Y848297D01*
X1065683Y848632D01*
X1065391Y848953D01*
X1065143Y849245D01*
X1064910Y849521D01*
X1064706Y849784D01*
X1064516Y850003D01*
X1064356Y850221D01*
X1064210Y850411D01*
X1064094Y850571D01*
X1064006Y850717D01*
X1063919Y850834D01*
X1063860Y850921D01*
X1063817Y850980D01*
X1063802Y851023D01*
X1063788Y851038D01*
X1063671Y851256D01*
X1063554Y851475D01*
X1063394Y851913D01*
X1063263Y852321D01*
X1063190Y852700D01*
X1063160Y852860D01*
X1063131Y853006D01*
X1063117Y853137D01*
Y853254D01*
X1063102Y853341D01*
Y853414D01*
Y853458D01*
Y853473D01*
X1063117Y853735D01*
X1063146Y853997D01*
X1063175Y854245D01*
X1063233Y854479D01*
X1063379Y854916D01*
X1063452Y855120D01*
X1063525Y855295D01*
X1063613Y855455D01*
X1063685Y855601D01*
X1063758Y855732D01*
X1063831Y855835D01*
X1063889Y855922D01*
X1063919Y855995D01*
X1063948Y856024D01*
X1063962Y856039D01*
X1064137Y856243D01*
X1064312Y856403D01*
X1064516Y856563D01*
X1064721Y856695D01*
X1064925Y856797D01*
X1065143Y856884D01*
X1065348Y856957D01*
X1065552Y857015D01*
X1065741Y857074D01*
X1065916Y857103D01*
X1066077Y857132D01*
X1066222Y857147D01*
X1066339Y857161D01*
X1066499D01*
X1066776Y857147D01*
D02*
G37*
G36*
X1074591Y856826D02*
X1074766Y856505D01*
X1074970Y856199D01*
X1075160Y855937D01*
X1075334Y855689D01*
X1075422Y855601D01*
X1075495Y855514D01*
X1075539Y855441D01*
X1075582Y855397D01*
X1075611Y855368D01*
X1075626Y855353D01*
X1075947Y855018D01*
X1076282Y854726D01*
X1076618Y854464D01*
X1076909Y854231D01*
X1077171Y854056D01*
X1077288Y853983D01*
X1077376Y853924D01*
X1077463Y853866D01*
X1077521Y853837D01*
X1077551Y853822D01*
X1077565Y853808D01*
Y852248D01*
X1077317Y852365D01*
X1077069Y852496D01*
X1076836Y852642D01*
X1076618Y852773D01*
X1076428Y852904D01*
X1076282Y853006D01*
X1076224Y853035D01*
X1076180Y853064D01*
X1076165Y853093D01*
X1076151D01*
X1075874Y853312D01*
X1075626Y853516D01*
X1075407Y853706D01*
X1075232Y853866D01*
X1075087Y854012D01*
X1074985Y854114D01*
X1074912Y854187D01*
X1074897Y854216D01*
Y843835D01*
X1073570D01*
Y857161D01*
X1074445D01*
X1074591Y856826D01*
D02*
G37*
G36*
X1044090Y855835D02*
Y853458D01*
X1045067D01*
Y852190D01*
X1044090D01*
Y846649D01*
Y846387D01*
Y846154D01*
X1044076Y845935D01*
X1044061Y845745D01*
Y845570D01*
X1044047Y845410D01*
X1044032Y845264D01*
X1044017Y845148D01*
X1044003Y845046D01*
X1043988Y844958D01*
X1043974Y844885D01*
Y844827D01*
X1043945Y844754D01*
Y844725D01*
X1043872Y844550D01*
X1043784Y844404D01*
X1043682Y844273D01*
X1043595Y844171D01*
X1043507Y844083D01*
X1043434Y844025D01*
X1043376Y843981D01*
X1043361Y843967D01*
X1043186Y843879D01*
X1042997Y843821D01*
X1042807Y843763D01*
X1042633Y843733D01*
X1042472Y843719D01*
X1042355Y843704D01*
X1042239D01*
X1041889Y843733D01*
X1041729Y843748D01*
X1041568Y843777D01*
X1041437Y843806D01*
X1041320Y843821D01*
X1041262Y843850D01*
X1041233D01*
X1041408Y845293D01*
X1041539Y845264D01*
X1041656Y845250D01*
X1041758Y845235D01*
X1041845D01*
X1041918Y845220D01*
X1042005D01*
X1042166Y845235D01*
X1042312Y845264D01*
X1042414Y845323D01*
X1042501Y845381D01*
X1042574Y845439D01*
X1042618Y845498D01*
X1042633Y845527D01*
X1042647Y845541D01*
X1042691Y845643D01*
X1042720Y845789D01*
X1042735Y845949D01*
X1042749Y846124D01*
X1042764Y846285D01*
Y846416D01*
Y846518D01*
Y846533D01*
Y846547D01*
Y852190D01*
X1041408D01*
Y853458D01*
X1042764D01*
Y856811D01*
X1044090Y855835D01*
D02*
G37*
G36*
X1052882Y847495D02*
X1052867Y847014D01*
X1052853Y846606D01*
X1052824Y846416D01*
X1052809Y846241D01*
X1052794Y846081D01*
X1052765Y845935D01*
X1052751Y845804D01*
X1052736Y845702D01*
X1052707Y845600D01*
X1052692Y845527D01*
X1052678Y845468D01*
Y845410D01*
X1052663Y845396D01*
Y845381D01*
X1052561Y845104D01*
X1052430Y844856D01*
X1052284Y844637D01*
X1052138Y844462D01*
X1052007Y844317D01*
X1051890Y844200D01*
X1051818Y844142D01*
X1051788Y844112D01*
X1051526Y843952D01*
X1051249Y843821D01*
X1050987Y843733D01*
X1050739Y843675D01*
X1050520Y843646D01*
X1050418Y843631D01*
X1050345D01*
X1050272Y843617D01*
X1050185D01*
X1049893Y843631D01*
X1049631Y843675D01*
X1049397Y843748D01*
X1049179Y843821D01*
X1049004Y843879D01*
X1048887Y843952D01*
X1048800Y843996D01*
X1048771Y844010D01*
X1048537Y844185D01*
X1048333Y844375D01*
X1048143Y844579D01*
X1047983Y844783D01*
X1047852Y844958D01*
X1047765Y845104D01*
X1047721Y845162D01*
X1047692Y845206D01*
X1047677Y845220D01*
Y843835D01*
X1046481D01*
Y853458D01*
X1047823D01*
Y848297D01*
Y847976D01*
X1047852Y847670D01*
X1047867Y847393D01*
X1047910Y847145D01*
X1047954Y846912D01*
X1047998Y846708D01*
X1048042Y846533D01*
X1048085Y846372D01*
X1048143Y846227D01*
X1048187Y846110D01*
X1048231Y846022D01*
X1048275Y845935D01*
X1048318Y845877D01*
X1048333Y845833D01*
X1048362Y845818D01*
Y845804D01*
X1048479Y845673D01*
X1048610Y845541D01*
X1048741Y845439D01*
X1048873Y845352D01*
X1049135Y845206D01*
X1049383Y845118D01*
X1049602Y845060D01*
X1049689Y845046D01*
X1049777Y845031D01*
X1049849Y845016D01*
X1049937D01*
X1050126Y845031D01*
X1050301Y845060D01*
X1050462Y845104D01*
X1050593Y845162D01*
X1050710Y845220D01*
X1050797Y845264D01*
X1050855Y845293D01*
X1050870Y845308D01*
X1051001Y845425D01*
X1051118Y845556D01*
X1051220Y845702D01*
X1051293Y845818D01*
X1051337Y845935D01*
X1051380Y846022D01*
X1051395Y846095D01*
X1051409Y846110D01*
X1051439Y846212D01*
X1051453Y846343D01*
X1051482Y846489D01*
X1051497Y846635D01*
X1051526Y846970D01*
X1051541Y847305D01*
Y847612D01*
X1051555Y847743D01*
Y847874D01*
Y847962D01*
Y848049D01*
Y848093D01*
Y848107D01*
Y853458D01*
X1052882D01*
Y847495D01*
D02*
G37*
G36*
X1058408Y853662D02*
X1058685Y853618D01*
X1058962Y853560D01*
X1059210Y853473D01*
X1059443Y853385D01*
X1059661Y853268D01*
X1059865Y853152D01*
X1060041Y853035D01*
X1060201Y852918D01*
X1060347Y852802D01*
X1060478Y852685D01*
X1060580Y852598D01*
X1060667Y852510D01*
X1060726Y852452D01*
X1060755Y852408D01*
X1060770Y852394D01*
X1060944Y852146D01*
X1061105Y851869D01*
X1061251Y851577D01*
X1061367Y851271D01*
X1061469Y850965D01*
X1061557Y850644D01*
X1061615Y850338D01*
X1061673Y850046D01*
X1061717Y849755D01*
X1061746Y849492D01*
X1061776Y849259D01*
X1061790Y849055D01*
X1061805Y848880D01*
Y848763D01*
Y848676D01*
Y848647D01*
X1061790Y848195D01*
X1061761Y847772D01*
X1061703Y847378D01*
X1061644Y847014D01*
X1061557Y846664D01*
X1061469Y846358D01*
X1061382Y846081D01*
X1061280Y845833D01*
X1061178Y845614D01*
X1061090Y845425D01*
X1061003Y845250D01*
X1060915Y845118D01*
X1060857Y845016D01*
X1060799Y844943D01*
X1060770Y844900D01*
X1060755Y844885D01*
X1060551Y844667D01*
X1060347Y844462D01*
X1060128Y844302D01*
X1059895Y844156D01*
X1059676Y844025D01*
X1059457Y843923D01*
X1059239Y843850D01*
X1059035Y843777D01*
X1058845Y843719D01*
X1058670Y843690D01*
X1058510Y843661D01*
X1058378Y843631D01*
X1058276D01*
X1058189Y843617D01*
X1058116D01*
X1057824Y843631D01*
X1057533Y843675D01*
X1057270Y843733D01*
X1057022Y843821D01*
X1056789Y843908D01*
X1056571Y844025D01*
X1056366Y844127D01*
X1056177Y844258D01*
X1056016Y844375D01*
X1055871Y844492D01*
X1055754Y844594D01*
X1055652Y844681D01*
X1055565Y844769D01*
X1055506Y844827D01*
X1055477Y844871D01*
X1055462Y844885D01*
X1055273Y845133D01*
X1055113Y845410D01*
X1054981Y845716D01*
X1054850Y846022D01*
X1054748Y846343D01*
X1054675Y846664D01*
X1054602Y846985D01*
X1054544Y847291D01*
X1054500Y847582D01*
X1054471Y847845D01*
X1054442Y848093D01*
X1054427Y848311D01*
X1054413Y848486D01*
Y848618D01*
Y848705D01*
Y848734D01*
X1054427Y849172D01*
X1054456Y849580D01*
X1054515Y849959D01*
X1054573Y850309D01*
X1054661Y850644D01*
X1054748Y850950D01*
X1054850Y851213D01*
X1054938Y851461D01*
X1055040Y851679D01*
X1055142Y851869D01*
X1055229Y852029D01*
X1055317Y852160D01*
X1055375Y852262D01*
X1055433Y852335D01*
X1055462Y852379D01*
X1055477Y852394D01*
X1055681Y852627D01*
X1055900Y852816D01*
X1056119Y852991D01*
X1056337Y853137D01*
X1056556Y853254D01*
X1056775Y853371D01*
X1056993Y853443D01*
X1057197Y853516D01*
X1057387Y853575D01*
X1057562Y853604D01*
X1057722Y853633D01*
X1057854Y853662D01*
X1057970D01*
X1058043Y853677D01*
X1058116D01*
X1058408Y853662D01*
D02*
G37*
G36*
X851438Y748064D02*
X853863D01*
Y747220D01*
X851438D01*
Y745250D01*
X850428D01*
Y747220D01*
X848022D01*
Y748064D01*
X850428D01*
Y750034D01*
X851438D01*
Y748064D01*
D02*
G37*
G36*
X855290Y738497D02*
X855280Y738293D01*
X855270Y738099D01*
X855251Y737915D01*
X855222Y737740D01*
X855192Y737585D01*
X855154Y737439D01*
X855115Y737303D01*
X855066Y737177D01*
X855027Y737061D01*
X854989Y736964D01*
X854950Y736886D01*
X854921Y736818D01*
X854892Y736760D01*
X854872Y736721D01*
X854853Y736702D01*
Y736692D01*
X854765Y736566D01*
X854669Y736450D01*
X854436Y736227D01*
X854193Y736032D01*
X853951Y735867D01*
X853834Y735800D01*
X853727Y735741D01*
X853630Y735693D01*
X853543Y735644D01*
X853475Y735615D01*
X853427Y735586D01*
X853388Y735567D01*
X853378D01*
X853174Y735489D01*
X852971Y735421D01*
X852534Y735305D01*
X852107Y735227D01*
X851903Y735198D01*
X851709Y735179D01*
X851525Y735159D01*
X851360Y735140D01*
X851205Y735130D01*
X851078D01*
X850972Y735120D01*
X850894D01*
X850846D01*
X850826D01*
X850399Y735130D01*
X850205Y735140D01*
X850011Y735159D01*
X849837Y735179D01*
X849672Y735208D01*
X849516Y735227D01*
X849380Y735247D01*
X849245Y735276D01*
X849138Y735295D01*
X849041Y735324D01*
X848953Y735344D01*
X848895Y735353D01*
X848847Y735373D01*
X848818Y735382D01*
X848808D01*
X848497Y735489D01*
X848226Y735605D01*
X847983Y735732D01*
X847877Y735790D01*
X847779Y735848D01*
X847692Y735897D01*
X847615Y735945D01*
X847547Y735994D01*
X847488Y736032D01*
X847450Y736062D01*
X847421Y736091D01*
X847401Y736100D01*
X847391Y736110D01*
X847197Y736285D01*
X847032Y736469D01*
X846897Y736653D01*
X846790Y736828D01*
X846712Y736983D01*
X846683Y737042D01*
X846654Y737100D01*
X846635Y737148D01*
X846625Y737177D01*
X846615Y737197D01*
Y737206D01*
X846586Y737303D01*
X846557Y737401D01*
X846518Y737624D01*
X846489Y737857D01*
X846470Y738090D01*
X846460Y738293D01*
X846450Y738381D01*
Y741107D01*
X855290D01*
Y738497D01*
D02*
G37*
G36*
X852679Y734092D02*
X852922Y734053D01*
X853145Y734014D01*
X853359Y733956D01*
X853553Y733898D01*
X853737Y733830D01*
X853902Y733752D01*
X854047Y733675D01*
X854183Y733607D01*
X854300Y733529D01*
X854397Y733461D01*
X854484Y733403D01*
X854542Y733354D01*
X854591Y733306D01*
X854620Y733287D01*
X854630Y733277D01*
X854775Y733122D01*
X854892Y732957D01*
X854998Y732782D01*
X855095Y732607D01*
X855173Y732423D01*
X855241Y732248D01*
X855290Y732074D01*
X855338Y731909D01*
X855367Y731744D01*
X855396Y731598D01*
X855406Y731472D01*
X855425Y731356D01*
Y731259D01*
X855435Y731191D01*
Y731133D01*
X855425Y730822D01*
X855387Y730541D01*
X855338Y730288D01*
X855309Y730172D01*
X855270Y730075D01*
X855241Y729978D01*
X855212Y729900D01*
X855192Y729823D01*
X855163Y729764D01*
X855144Y729716D01*
X855125Y729687D01*
X855115Y729667D01*
Y729658D01*
X854979Y729444D01*
X854824Y729250D01*
X854669Y729085D01*
X854513Y728940D01*
X854377Y728833D01*
X854261Y728755D01*
X854222Y728726D01*
X854193Y728707D01*
X854174Y728687D01*
X854164D01*
X853921Y728571D01*
X853689Y728484D01*
X853456Y728416D01*
X853242Y728377D01*
X853145Y728357D01*
X853058Y728348D01*
X852980Y728338D01*
X852912D01*
X852864Y728328D01*
X852815D01*
X852796D01*
X852786D01*
X852505Y728348D01*
X852262Y728387D01*
X852039Y728435D01*
X851845Y728503D01*
X851758Y728532D01*
X851690Y728571D01*
X851622Y728600D01*
X851573Y728620D01*
X851535Y728649D01*
X851505Y728658D01*
X851486Y728678D01*
X851476D01*
X851282Y728814D01*
X851108Y728979D01*
X850952Y729144D01*
X850826Y729308D01*
X850720Y729454D01*
X850681Y729512D01*
X850642Y729570D01*
X850622Y729609D01*
X850603Y729648D01*
X850584Y729667D01*
Y729677D01*
X850545Y729764D01*
X850496Y729871D01*
X850448Y729978D01*
X850409Y730094D01*
X850322Y730347D01*
X850234Y730589D01*
X850205Y730706D01*
X850166Y730822D01*
X850137Y730919D01*
X850108Y731006D01*
X850089Y731084D01*
X850069Y731133D01*
X850060Y731171D01*
Y731181D01*
X850001Y731375D01*
X849943Y731560D01*
X849895Y731715D01*
X849837Y731860D01*
X849788Y731996D01*
X849740Y732113D01*
X849691Y732210D01*
X849652Y732297D01*
X849613Y732365D01*
X849575Y732433D01*
X849545Y732481D01*
X849516Y732520D01*
X849497Y732549D01*
X849477Y732569D01*
X849468Y732588D01*
X849342Y732695D01*
X849206Y732763D01*
X849070Y732821D01*
X848934Y732860D01*
X848818Y732879D01*
X848721Y732889D01*
X848682Y732898D01*
X848653D01*
X848643D01*
X848633D01*
X848527Y732889D01*
X848430Y732879D01*
X848245Y732831D01*
X848080Y732763D01*
X847944Y732685D01*
X847838Y732607D01*
X847760Y732540D01*
X847712Y732491D01*
X847692Y732471D01*
X847566Y732297D01*
X847479Y732093D01*
X847411Y731889D01*
X847372Y731686D01*
X847343Y731511D01*
X847333Y731433D01*
Y731365D01*
X847324Y731307D01*
Y731084D01*
X847343Y730948D01*
X847391Y730696D01*
X847459Y730482D01*
X847527Y730308D01*
X847605Y730172D01*
X847644Y730114D01*
X847673Y730065D01*
X847702Y730036D01*
X847721Y730007D01*
X847731Y729988D01*
X847741D01*
X847828Y729910D01*
X847915Y729832D01*
X848119Y729716D01*
X848333Y729629D01*
X848536Y729561D01*
X848730Y729512D01*
X848808Y729493D01*
X848876Y729483D01*
X848934Y729473D01*
X848983Y729464D01*
X849012D01*
X849022D01*
X848934Y728542D01*
X848643Y728561D01*
X848371Y728610D01*
X848139Y728668D01*
X847935Y728736D01*
X847847Y728765D01*
X847770Y728804D01*
X847702Y728833D01*
X847644Y728852D01*
X847595Y728882D01*
X847566Y728891D01*
X847547Y728911D01*
X847537D01*
X847324Y729046D01*
X847139Y729192D01*
X846984Y729357D01*
X846848Y729502D01*
X846751Y729638D01*
X846673Y729755D01*
X846644Y729794D01*
X846635Y729823D01*
X846615Y729842D01*
Y729852D01*
X846508Y730085D01*
X846431Y730327D01*
X846373Y730560D01*
X846334Y730783D01*
X846324Y730880D01*
X846314Y730968D01*
X846305Y731055D01*
X846295Y731123D01*
Y731259D01*
X846305Y731472D01*
X846324Y731676D01*
X846363Y731870D01*
X846402Y732045D01*
X846450Y732210D01*
X846508Y732365D01*
X846576Y732510D01*
X846635Y732636D01*
X846702Y732753D01*
X846770Y732850D01*
X846829Y732937D01*
X846877Y733005D01*
X846916Y733063D01*
X846955Y733102D01*
X846974Y733122D01*
X846984Y733131D01*
X847120Y733248D01*
X847256Y733354D01*
X847401Y733452D01*
X847547Y733529D01*
X847692Y733597D01*
X847838Y733655D01*
X847974Y733694D01*
X848109Y733733D01*
X848235Y733762D01*
X848352Y733781D01*
X848459Y733801D01*
X848556Y733811D01*
X848624Y733820D01*
X848682D01*
X848721D01*
X848730D01*
X848953Y733811D01*
X849148Y733781D01*
X849332Y733743D01*
X849497Y733704D01*
X849623Y733665D01*
X849720Y733626D01*
X849759Y733607D01*
X849788Y733597D01*
X849798Y733587D01*
X849807D01*
X849972Y733490D01*
X850128Y733374D01*
X850254Y733267D01*
X850370Y733160D01*
X850458Y733063D01*
X850525Y732976D01*
X850564Y732928D01*
X850584Y732908D01*
X850642Y732821D01*
X850700Y732724D01*
X850807Y732501D01*
X850913Y732258D01*
X851001Y732016D01*
X851040Y731899D01*
X851078Y731802D01*
X851117Y731705D01*
X851137Y731618D01*
X851166Y731550D01*
X851185Y731501D01*
X851195Y731462D01*
Y731453D01*
X851253Y731249D01*
X851311Y731055D01*
X851369Y730890D01*
X851418Y730735D01*
X851467Y730599D01*
X851515Y730473D01*
X851554Y730366D01*
X851593Y730269D01*
X851622Y730191D01*
X851651Y730124D01*
X851670Y730075D01*
X851690Y730026D01*
X851709Y729997D01*
X851719Y729978D01*
X851729Y729958D01*
X851806Y729832D01*
X851884Y729726D01*
X851961Y729638D01*
X852039Y729561D01*
X852097Y729512D01*
X852156Y729464D01*
X852194Y729444D01*
X852204Y729435D01*
X852320Y729376D01*
X852437Y729337D01*
X852544Y729299D01*
X852650Y729279D01*
X852747Y729270D01*
X852815Y729260D01*
X852864D01*
X852883D01*
X853009Y729270D01*
X853126Y729279D01*
X853339Y729337D01*
X853524Y729406D01*
X853679Y729493D01*
X853805Y729580D01*
X853892Y729658D01*
X853951Y729716D01*
X853960Y729726D01*
X853970Y729735D01*
X854106Y729929D01*
X854203Y730143D01*
X854280Y730366D01*
X854329Y730580D01*
X854358Y730773D01*
X854368Y730851D01*
Y730919D01*
X854377Y730987D01*
Y731065D01*
X854368Y731288D01*
X854339Y731482D01*
X854300Y731666D01*
X854251Y731831D01*
X854212Y731957D01*
X854174Y732054D01*
X854154Y732093D01*
X854145Y732122D01*
X854135Y732132D01*
Y732142D01*
X854038Y732307D01*
X853931Y732462D01*
X853824Y732588D01*
X853718Y732685D01*
X853630Y732772D01*
X853553Y732831D01*
X853504Y732869D01*
X853485Y732879D01*
X853320Y732966D01*
X853136Y733034D01*
X852941Y733092D01*
X852757Y733131D01*
X852592Y733160D01*
X852524Y733180D01*
X852456D01*
X852408Y733189D01*
X852369Y733199D01*
X852349D01*
X852340D01*
X852427Y734102D01*
X852679Y734092D01*
D02*
G37*
G36*
X849613Y726553D02*
X849526Y726388D01*
X849429Y726233D01*
X849342Y726087D01*
X849254Y725961D01*
X849186Y725864D01*
X849167Y725825D01*
X849148Y725796D01*
X849128Y725786D01*
Y725777D01*
X848983Y725592D01*
X848847Y725427D01*
X848721Y725282D01*
X848614Y725165D01*
X848517Y725068D01*
X848449Y725000D01*
X848400Y724952D01*
X848381Y724942D01*
X855290D01*
Y724059D01*
X846421D01*
Y724641D01*
X846644Y724738D01*
X846858Y724855D01*
X847061Y724991D01*
X847236Y725117D01*
X847401Y725233D01*
X847459Y725292D01*
X847517Y725340D01*
X847566Y725369D01*
X847595Y725398D01*
X847615Y725418D01*
X847624Y725427D01*
X847847Y725641D01*
X848042Y725864D01*
X848216Y726087D01*
X848371Y726281D01*
X848488Y726456D01*
X848536Y726533D01*
X848575Y726592D01*
X848614Y726650D01*
X848633Y726689D01*
X848643Y726708D01*
X848653Y726718D01*
X849691D01*
X849613Y726553D01*
D02*
G37*
G36*
X852971Y721769D02*
X853174Y721750D01*
X853378Y721721D01*
X853562Y721672D01*
X853737Y721624D01*
X853892Y721566D01*
X854038Y721498D01*
X854174Y721440D01*
X854290Y721372D01*
X854397Y721313D01*
X854484Y721255D01*
X854562Y721207D01*
X854620Y721158D01*
X854659Y721129D01*
X854688Y721110D01*
X854698Y721100D01*
X854824Y720964D01*
X854940Y720828D01*
X855037Y720683D01*
X855125Y720547D01*
X855192Y720401D01*
X855251Y720256D01*
X855299Y720120D01*
X855338Y719984D01*
X855377Y719868D01*
X855396Y719751D01*
X855416Y719644D01*
X855425Y719557D01*
Y719489D01*
X855435Y719441D01*
Y719392D01*
X855425Y719208D01*
X855406Y719033D01*
X855367Y718858D01*
X855319Y718703D01*
X855260Y718548D01*
X855202Y718412D01*
X855134Y718286D01*
X855066Y718160D01*
X854998Y718063D01*
X854930Y717966D01*
X854872Y717888D01*
X854814Y717820D01*
X854765Y717762D01*
X854727Y717723D01*
X854707Y717704D01*
X854698Y717694D01*
X854552Y717568D01*
X854397Y717471D01*
X854242Y717374D01*
X854086Y717296D01*
X853921Y717228D01*
X853756Y717170D01*
X853601Y717131D01*
X853456Y717093D01*
X853320Y717064D01*
X853184Y717044D01*
X853067Y717025D01*
X852971Y717015D01*
X852893Y717005D01*
X852825D01*
X852786D01*
X852776D01*
X852466Y717025D01*
X852185Y717064D01*
X851942Y717122D01*
X851835Y717151D01*
X851738Y717180D01*
X851641Y717219D01*
X851564Y717248D01*
X851496Y717277D01*
X851447Y717306D01*
X851399Y717335D01*
X851369Y717345D01*
X851350Y717364D01*
X851340D01*
X851137Y717510D01*
X850962Y717665D01*
X850816Y717830D01*
X850700Y717995D01*
X850613Y718140D01*
X850555Y718257D01*
X850535Y718305D01*
X850516Y718335D01*
X850506Y718354D01*
Y718364D01*
X850399Y718179D01*
X850293Y718014D01*
X850176Y717878D01*
X850069Y717762D01*
X849972Y717675D01*
X849885Y717617D01*
X849837Y717578D01*
X849817Y717568D01*
X849642Y717481D01*
X849458Y717413D01*
X849274Y717364D01*
X849109Y717326D01*
X848953Y717306D01*
X848895D01*
X848837Y717296D01*
X848789D01*
X848760D01*
X848740D01*
X848730D01*
X848546Y717306D01*
X848362Y717326D01*
X848197Y717355D01*
X848042Y717393D01*
X847896Y717432D01*
X847760Y717490D01*
X847634Y717539D01*
X847517Y717597D01*
X847421Y717655D01*
X847324Y717704D01*
X847246Y717762D01*
X847188Y717801D01*
X847139Y717840D01*
X847100Y717869D01*
X847081Y717888D01*
X847071Y717898D01*
X846955Y718014D01*
X846858Y718131D01*
X846770Y718257D01*
X846693Y718383D01*
X846635Y718509D01*
X846576Y718635D01*
X846499Y718878D01*
X846479Y718985D01*
X846460Y719082D01*
X846441Y719179D01*
X846431Y719247D01*
X846421Y719314D01*
Y719402D01*
X846431Y719567D01*
X846450Y719722D01*
X846479Y719877D01*
X846518Y720013D01*
X846567Y720149D01*
X846625Y720275D01*
X846683Y720382D01*
X846741Y720489D01*
X846799Y720576D01*
X846858Y720663D01*
X846916Y720731D01*
X846964Y720789D01*
X847003Y720838D01*
X847032Y720867D01*
X847052Y720886D01*
X847061Y720896D01*
X847188Y721003D01*
X847314Y721090D01*
X847450Y721168D01*
X847586Y721236D01*
X847721Y721294D01*
X847857Y721342D01*
X848109Y721410D01*
X848235Y721440D01*
X848342Y721459D01*
X848439Y721469D01*
X848527Y721478D01*
X848595Y721488D01*
X848643D01*
X848682D01*
X848692D01*
X848934Y721478D01*
X849148Y721449D01*
X849342Y721401D01*
X849507Y721352D01*
X849633Y721313D01*
X849740Y721265D01*
X849769Y721245D01*
X849798Y721236D01*
X849807Y721226D01*
X849817D01*
X849972Y721110D01*
X850108Y720983D01*
X850234Y720848D01*
X850331Y720721D01*
X850409Y720605D01*
X850458Y720508D01*
X850477Y720469D01*
X850496Y720440D01*
X850506Y720430D01*
Y720421D01*
X850593Y720644D01*
X850710Y720848D01*
X850846Y721022D01*
X850972Y721158D01*
X851088Y721274D01*
X851185Y721352D01*
X851224Y721381D01*
X851253Y721401D01*
X851273Y721420D01*
X851282D01*
X851505Y721536D01*
X851748Y721624D01*
X852000Y721692D01*
X852233Y721730D01*
X852340Y721750D01*
X852437Y721760D01*
X852524Y721769D01*
X852602D01*
X852660Y721779D01*
X852709D01*
X852738D01*
X852747D01*
X852971Y721769D01*
D02*
G37*
G36*
X855290Y712872D02*
X855280Y712707D01*
X855260Y712552D01*
X855251Y712406D01*
X855222Y712270D01*
X855202Y712144D01*
X855183Y712037D01*
X855154Y711931D01*
X855125Y711843D01*
X855105Y711766D01*
X855076Y711698D01*
X855057Y711640D01*
X855047Y711601D01*
X855027Y711572D01*
X855018Y711552D01*
Y711543D01*
X854901Y711348D01*
X854765Y711174D01*
X854620Y711019D01*
X854474Y710892D01*
X854348Y710796D01*
X854242Y710718D01*
X854203Y710689D01*
X854174Y710679D01*
X854154Y710660D01*
X854145D01*
X853912Y710553D01*
X853669Y710466D01*
X853427Y710407D01*
X853213Y710369D01*
X853116Y710359D01*
X853019Y710349D01*
X852941Y710339D01*
X852874Y710330D01*
X852815D01*
X852776D01*
X852747D01*
X852738D01*
X852447Y710349D01*
X852185Y710388D01*
X851952Y710446D01*
X851748Y710514D01*
X851670Y710553D01*
X851593Y710582D01*
X851535Y710611D01*
X851476Y710640D01*
X851438Y710660D01*
X851408Y710679D01*
X851389Y710698D01*
X851379D01*
X851185Y710844D01*
X851020Y711009D01*
X850884Y711174D01*
X850778Y711329D01*
X850700Y711465D01*
X850642Y711581D01*
X850622Y711630D01*
X850603Y711659D01*
X850593Y711678D01*
Y711688D01*
X850477Y711514D01*
X850351Y711368D01*
X850215Y711242D01*
X850098Y711135D01*
X849982Y711048D01*
X849895Y710990D01*
X849837Y710951D01*
X849827Y710941D01*
X849817D01*
X849623Y710854D01*
X849439Y710786D01*
X849245Y710737D01*
X849080Y710698D01*
X848934Y710679D01*
X848866D01*
X848818Y710669D01*
X848769D01*
X848740D01*
X848721D01*
X848711D01*
X848468Y710679D01*
X848245Y710718D01*
X848042Y710766D01*
X847857Y710825D01*
X847712Y710883D01*
X847653Y710912D01*
X847605Y710931D01*
X847566Y710951D01*
X847537Y710970D01*
X847517Y710980D01*
X847508D01*
X847314Y711106D01*
X847159Y711232D01*
X847013Y711368D01*
X846906Y711494D01*
X846819Y711601D01*
X846761Y711698D01*
X846722Y711756D01*
X846712Y711766D01*
Y711776D01*
X846625Y711970D01*
X846557Y712183D01*
X846518Y712406D01*
X846479Y712610D01*
X846460Y712794D01*
Y712882D01*
X846450Y712950D01*
Y715802D01*
X855290D01*
Y712872D01*
D02*
G37*
G36*
Y704702D02*
X854251D01*
Y708263D01*
X854038Y708147D01*
X853941Y708088D01*
X853854Y708030D01*
X853776Y707972D01*
X853718Y707933D01*
X853679Y707904D01*
X853669Y707894D01*
X853611Y707846D01*
X853533Y707778D01*
X853368Y707632D01*
X853184Y707467D01*
X853000Y707283D01*
X852825Y707118D01*
X852747Y707050D01*
X852689Y706982D01*
X852631Y706934D01*
X852592Y706895D01*
X852563Y706866D01*
X852553Y706856D01*
X852320Y706633D01*
X852097Y706429D01*
X851884Y706235D01*
X851690Y706070D01*
X851505Y705915D01*
X851331Y705779D01*
X851185Y705653D01*
X851040Y705546D01*
X850913Y705449D01*
X850807Y705372D01*
X850710Y705313D01*
X850632Y705255D01*
X850574Y705216D01*
X850535Y705187D01*
X850506Y705178D01*
X850496Y705168D01*
X850351Y705090D01*
X850205Y705013D01*
X849914Y704906D01*
X849642Y704819D01*
X849390Y704770D01*
X849283Y704751D01*
X849186Y704731D01*
X849099Y704722D01*
X849022D01*
X848963Y704712D01*
X848915D01*
X848886D01*
X848876D01*
X848701Y704722D01*
X848527Y704741D01*
X848362Y704760D01*
X848206Y704799D01*
X847915Y704896D01*
X847779Y704945D01*
X847663Y704993D01*
X847556Y705051D01*
X847459Y705100D01*
X847372Y705148D01*
X847304Y705197D01*
X847246Y705236D01*
X847197Y705255D01*
X847178Y705275D01*
X847168Y705284D01*
X847032Y705401D01*
X846926Y705517D01*
X846819Y705653D01*
X846732Y705789D01*
X846664Y705925D01*
X846606Y706070D01*
X846557Y706206D01*
X846518Y706342D01*
X846479Y706468D01*
X846460Y706584D01*
X846441Y706691D01*
X846431Y706788D01*
X846421Y706866D01*
Y706973D01*
X846431Y707157D01*
X846450Y707332D01*
X846479Y707506D01*
X846518Y707662D01*
X846576Y707807D01*
X846625Y707943D01*
X846683Y708069D01*
X846741Y708176D01*
X846809Y708282D01*
X846867Y708370D01*
X846916Y708447D01*
X846964Y708506D01*
X847013Y708554D01*
X847042Y708593D01*
X847061Y708612D01*
X847071Y708622D01*
X847197Y708729D01*
X847333Y708826D01*
X847488Y708913D01*
X847634Y708991D01*
X847799Y709059D01*
X847954Y709117D01*
X848265Y709204D01*
X848410Y709243D01*
X848536Y709272D01*
X848662Y709292D01*
X848769Y709311D01*
X848857Y709321D01*
X848915D01*
X848953Y709330D01*
X848973D01*
X849089Y708418D01*
X848789Y708399D01*
X848527Y708360D01*
X848410Y708321D01*
X848304Y708292D01*
X848206Y708253D01*
X848109Y708214D01*
X848032Y708185D01*
X847964Y708147D01*
X847915Y708108D01*
X847867Y708079D01*
X847828Y708059D01*
X847799Y708040D01*
X847789Y708020D01*
X847779D01*
X847702Y707943D01*
X847624Y707865D01*
X847508Y707691D01*
X847430Y707516D01*
X847372Y707361D01*
X847333Y707215D01*
X847324Y707147D01*
Y707099D01*
X847314Y707050D01*
Y706885D01*
X847333Y706778D01*
X847382Y706594D01*
X847450Y706429D01*
X847527Y706284D01*
X847605Y706167D01*
X847673Y706080D01*
X847721Y706031D01*
X847731Y706012D01*
X847741D01*
X847906Y705876D01*
X848090Y705779D01*
X848274Y705711D01*
X848449Y705663D01*
X848604Y705634D01*
X848672Y705624D01*
X848730D01*
X848779Y705614D01*
X848818D01*
X848837D01*
X848847D01*
X849070Y705634D01*
X849293Y705672D01*
X849497Y705740D01*
X849691Y705808D01*
X849866Y705876D01*
X849933Y705915D01*
X849992Y705944D01*
X850040Y705964D01*
X850079Y705983D01*
X850098Y706002D01*
X850108D01*
X850244Y706080D01*
X850390Y706187D01*
X850535Y706293D01*
X850690Y706420D01*
X851011Y706691D01*
X851321Y706963D01*
X851467Y707099D01*
X851602Y707225D01*
X851719Y707341D01*
X851826Y707438D01*
X851913Y707526D01*
X851971Y707584D01*
X852020Y707632D01*
X852029Y707642D01*
X852223Y707836D01*
X852417Y708011D01*
X852592Y708176D01*
X852767Y708321D01*
X852932Y708457D01*
X853087Y708574D01*
X853223Y708680D01*
X853359Y708777D01*
X853475Y708865D01*
X853582Y708932D01*
X853669Y708991D01*
X853747Y709039D01*
X853805Y709068D01*
X853844Y709098D01*
X853873Y709107D01*
X853883Y709117D01*
X854028Y709185D01*
X854164Y709243D01*
X854426Y709340D01*
X854669Y709408D01*
X854872Y709456D01*
X854969Y709466D01*
X855047Y709476D01*
X855115Y709486D01*
X855183Y709495D01*
X855222D01*
X855260D01*
X855280D01*
X855290D01*
Y704702D01*
D02*
G37*
G36*
X851379Y703761D02*
X851796Y703742D01*
X852175Y703712D01*
X852524Y703664D01*
X852844Y703615D01*
X853126Y703557D01*
X853388Y703499D01*
X853611Y703441D01*
X853805Y703382D01*
X853980Y703315D01*
X854115Y703266D01*
X854232Y703218D01*
X854319Y703169D01*
X854377Y703140D01*
X854416Y703121D01*
X854426Y703111D01*
X854601Y702985D01*
X854756Y702849D01*
X854892Y702713D01*
X855008Y702568D01*
X855105Y702422D01*
X855192Y702286D01*
X855251Y702150D01*
X855309Y702014D01*
X855348Y701898D01*
X855377Y701782D01*
X855406Y701685D01*
X855416Y701597D01*
X855425Y701520D01*
X855435Y701471D01*
Y701423D01*
X855425Y701209D01*
X855387Y701005D01*
X855328Y700821D01*
X855260Y700646D01*
X855173Y700481D01*
X855076Y700336D01*
X854969Y700210D01*
X854863Y700093D01*
X854756Y699987D01*
X854649Y699899D01*
X854552Y699822D01*
X854465Y699754D01*
X854397Y699705D01*
X854339Y699676D01*
X854300Y699657D01*
X854290Y699647D01*
X854067Y699540D01*
X853815Y699453D01*
X853553Y699366D01*
X853281Y699298D01*
X853000Y699239D01*
X852728Y699191D01*
X852447Y699152D01*
X852185Y699123D01*
X851932Y699094D01*
X851690Y699074D01*
X851476Y699065D01*
X851292Y699055D01*
X851146Y699045D01*
X851078D01*
X851030D01*
X850991D01*
X850962D01*
X850943D01*
X850933D01*
X850487Y699055D01*
X850069Y699074D01*
X849691Y699113D01*
X849332Y699162D01*
X849012Y699210D01*
X848721Y699278D01*
X848449Y699336D01*
X848216Y699404D01*
X848012Y699472D01*
X847838Y699540D01*
X847682Y699608D01*
X847566Y699657D01*
X847469Y699705D01*
X847401Y699744D01*
X847362Y699763D01*
X847353Y699773D01*
X847188Y699890D01*
X847042Y700016D01*
X846916Y700142D01*
X846809Y700278D01*
X846722Y700414D01*
X846644Y700549D01*
X846586Y700685D01*
X846537Y700811D01*
X846499Y700937D01*
X846470Y701044D01*
X846450Y701141D01*
X846431Y701228D01*
Y701306D01*
X846421Y701355D01*
Y701403D01*
X846431Y701617D01*
X846470Y701820D01*
X846528Y702005D01*
X846596Y702179D01*
X846683Y702335D01*
X846780Y702480D01*
X846887Y702616D01*
X846994Y702732D01*
X847100Y702839D01*
X847207Y702926D01*
X847304Y703004D01*
X847391Y703062D01*
X847459Y703111D01*
X847517Y703150D01*
X847556Y703169D01*
X847566Y703179D01*
X847789Y703286D01*
X848042Y703373D01*
X848304Y703450D01*
X848575Y703518D01*
X848857Y703577D01*
X849138Y703625D01*
X849410Y703664D01*
X849681Y703693D01*
X849933Y703722D01*
X850166Y703742D01*
X850380Y703751D01*
X850564Y703761D01*
X850720Y703771D01*
X850778D01*
X850836D01*
X850875D01*
X850904D01*
X850923D01*
X850933D01*
X851379Y703761D01*
D02*
G37*
G36*
X852641Y692680D02*
X851554D01*
Y695407D01*
X852641D01*
Y692680D01*
D02*
G37*
%LPC*%
G36*
X998990Y758958D02*
X996918D01*
X995005Y758166D01*
X993540Y756701D01*
X992747Y754787D01*
Y752716D01*
X993540Y750802D01*
X995005Y749337D01*
X996918Y748544D01*
X998990D01*
X1000904Y749337D01*
X1002368Y750802D01*
X1003161Y752716D01*
Y754787D01*
X1002368Y756701D01*
X1000904Y758166D01*
X998990Y758958D01*
D02*
G37*
G36*
X962465Y724075D02*
X960393D01*
X958479Y723282D01*
X957015Y721817D01*
X956222Y719903D01*
Y717832D01*
X957015Y715918D01*
X958479Y714453D01*
X960393Y713661D01*
X962465D01*
X964379Y714453D01*
X965843Y715918D01*
X966636Y717832D01*
Y719903D01*
X965843Y721817D01*
X964379Y723282D01*
X962465Y724075D01*
D02*
G37*
G36*
X936789Y715655D02*
X934717D01*
X932803Y714863D01*
X931339Y713398D01*
X930546Y711484D01*
Y709413D01*
X931339Y707499D01*
X932803Y706034D01*
X934717Y705241D01*
X936789D01*
X938702Y706034D01*
X940167Y707499D01*
X940960Y709413D01*
Y711484D01*
X940167Y713398D01*
X938702Y714863D01*
X936789Y715655D01*
D02*
G37*
G36*
X933137Y696192D02*
X931065D01*
X929152Y695399D01*
X927687Y693934D01*
X926894Y692021D01*
Y689949D01*
X927687Y688035D01*
X929152Y686571D01*
X931065Y685778D01*
X933137D01*
X935051Y686571D01*
X936515Y688035D01*
X937308Y689949D01*
Y692021D01*
X936515Y693934D01*
X935051Y695399D01*
X933137Y696192D01*
D02*
G37*
G36*
X991078Y705985D02*
X988171D01*
X985363Y705232D01*
X982846Y703779D01*
X980790Y701723D01*
X979337Y699206D01*
X978585Y696398D01*
Y693491D01*
X979337Y690684D01*
X980790Y688166D01*
X982846Y686111D01*
X985363Y684657D01*
X988171Y683905D01*
X991078D01*
X993886Y684657D01*
X996403Y686111D01*
X998459Y688166D01*
X999912Y690684D01*
X1000665Y693491D01*
Y696398D01*
X999912Y699206D01*
X998459Y701723D01*
X996403Y703779D01*
X993886Y705232D01*
X991078Y705985D01*
D02*
G37*
G36*
X965078D02*
X962171D01*
X959363Y705232D01*
X956846Y703779D01*
X954790Y701723D01*
X953337Y699206D01*
X952585Y696398D01*
Y693491D01*
X953337Y690684D01*
X954790Y688166D01*
X956846Y686111D01*
X959363Y684657D01*
X962171Y683905D01*
X965078D01*
X967886Y684657D01*
X970403Y686111D01*
X972459Y688166D01*
X973912Y690684D01*
X974665Y693491D01*
Y696398D01*
X973912Y699206D01*
X972459Y701723D01*
X970403Y703779D01*
X967886Y705232D01*
X965078Y705985D01*
D02*
G37*
G36*
X1066573Y690782D02*
X1049073D01*
X1047105Y690523D01*
X1045270Y689763D01*
X1043695Y688555D01*
X1042487Y686980D01*
X1041727Y685145D01*
X1041468Y683177D01*
Y673177D01*
X1041727Y671209D01*
X1042487Y669374D01*
X1043695Y667799D01*
X1045270Y666591D01*
X1047105Y665831D01*
X1049073Y665572D01*
X1066573D01*
X1068541Y665831D01*
X1070376Y666591D01*
X1071951Y667799D01*
X1071993Y667855D01*
X1073876Y667075D01*
X1075948D01*
X1077861Y667868D01*
X1078035Y668042D01*
X1083225D01*
X1084216Y668239D01*
X1085056Y668800D01*
X1085617Y669640D01*
X1085815Y670631D01*
Y671052D01*
X1086669Y672331D01*
X1086982Y673907D01*
Y679907D01*
X1086669Y681483D01*
X1085815Y682762D01*
Y683167D01*
X1085617Y684158D01*
X1085056Y684998D01*
X1084216Y685559D01*
X1083225Y685757D01*
X1073666D01*
X1073159Y686980D01*
X1071951Y688555D01*
X1070376Y689763D01*
X1068541Y690523D01*
X1066573Y690782D01*
D02*
G37*
G36*
X991078Y679985D02*
X988171D01*
X985363Y679232D01*
X982846Y677779D01*
X980790Y675723D01*
X979337Y673206D01*
X978585Y670398D01*
Y667491D01*
X979337Y664684D01*
X980790Y662166D01*
X982846Y660111D01*
X985363Y658657D01*
X988171Y657905D01*
X991078D01*
X993886Y658657D01*
X996403Y660111D01*
X998459Y662166D01*
X999912Y664684D01*
X1000665Y667491D01*
Y670398D01*
X999912Y673206D01*
X998459Y675723D01*
X996403Y677779D01*
X993886Y679232D01*
X991078Y679985D01*
D02*
G37*
G36*
X965078D02*
X962171D01*
X959363Y679232D01*
X956846Y677779D01*
X954790Y675723D01*
X953337Y673206D01*
X952585Y670398D01*
Y667491D01*
X953337Y664684D01*
X954790Y662166D01*
X956846Y660111D01*
X959363Y658657D01*
X962171Y657905D01*
X965078D01*
X967886Y658657D01*
X970403Y660111D01*
X972459Y662166D01*
X973912Y664684D01*
X974665Y667491D01*
Y670398D01*
X973912Y673206D01*
X972459Y675723D01*
X970403Y677779D01*
X967886Y679232D01*
X965078Y679985D01*
D02*
G37*
G36*
X874586Y632341D02*
X872597D01*
X872471Y632331D01*
X872364D01*
X872258Y632321D01*
X872161Y632312D01*
X872083Y632292D01*
X871937Y632273D01*
X871831Y632244D01*
X871763Y632215D01*
X871714Y632205D01*
X871705Y632195D01*
X871598Y632137D01*
X871501Y632059D01*
X871423Y631972D01*
X871346Y631885D01*
X871287Y631807D01*
X871249Y631739D01*
X871219Y631700D01*
X871210Y631681D01*
X871142Y631535D01*
X871093Y631390D01*
X871055Y631235D01*
X871035Y631099D01*
X871016Y630973D01*
X871006Y630876D01*
Y630837D01*
Y630808D01*
Y630798D01*
Y630788D01*
Y630643D01*
X871025Y630507D01*
X871045Y630371D01*
X871074Y630255D01*
X871142Y630051D01*
X871210Y629876D01*
X871287Y629740D01*
X871355Y629653D01*
X871404Y629595D01*
X871414Y629585D01*
X871423Y629575D01*
X871501Y629507D01*
X871598Y629440D01*
X871792Y629342D01*
X872015Y629274D01*
X872219Y629226D01*
X872413Y629197D01*
X872500Y629187D01*
X872568D01*
X872626Y629178D01*
X874586D01*
Y632341D01*
D02*
G37*
G36*
X855094Y632515D02*
X855035D01*
X854919Y632506D01*
X854802Y632486D01*
X854686Y632447D01*
X854589Y632399D01*
X854405Y632282D01*
X854249Y632147D01*
X854123Y632011D01*
X854036Y631894D01*
X853997Y631846D01*
X853978Y631807D01*
X853958Y631788D01*
Y631778D01*
X853881Y631623D01*
X853822Y631448D01*
X853764Y631244D01*
X853716Y631021D01*
X853677Y630788D01*
X853638Y630546D01*
X853589Y630061D01*
X853580Y629837D01*
X853560Y629614D01*
X853551Y629420D01*
Y629245D01*
X853541Y629100D01*
Y629042D01*
Y628993D01*
Y628954D01*
Y628925D01*
Y628906D01*
Y628896D01*
Y628508D01*
X853560Y628159D01*
X853580Y627839D01*
X853609Y627547D01*
X853638Y627285D01*
X853677Y627053D01*
X853706Y626839D01*
X853745Y626665D01*
X853784Y626499D01*
X853822Y626373D01*
X853861Y626257D01*
X853890Y626170D01*
X853919Y626102D01*
X853939Y626063D01*
X853949Y626034D01*
X853958Y626024D01*
X854036Y625898D01*
X854123Y625782D01*
X854211Y625685D01*
X854298Y625597D01*
X854385Y625529D01*
X854463Y625471D01*
X854550Y625423D01*
X854628Y625384D01*
X854773Y625326D01*
X854880Y625296D01*
X854929D01*
X854958Y625287D01*
X854987D01*
X855103Y625296D01*
X855220Y625316D01*
X855326Y625355D01*
X855423Y625403D01*
X855608Y625520D01*
X855763Y625655D01*
X855889Y625782D01*
X855976Y625898D01*
X856015Y625947D01*
X856035Y625985D01*
X856044Y626005D01*
X856054Y626014D01*
X856122Y626170D01*
X856190Y626344D01*
X856238Y626548D01*
X856287Y626771D01*
X856326Y627004D01*
X856365Y627247D01*
X856413Y627732D01*
X856423Y627955D01*
X856442Y628178D01*
X856452Y628372D01*
Y628547D01*
X856462Y628692D01*
Y628751D01*
Y628799D01*
Y628838D01*
Y628877D01*
Y628886D01*
Y628896D01*
X856452Y629284D01*
X856442Y629633D01*
X856423Y629954D01*
X856394Y630245D01*
X856365Y630507D01*
X856335Y630740D01*
X856297Y630953D01*
X856258Y631138D01*
X856219Y631293D01*
X856180Y631419D01*
X856151Y631535D01*
X856122Y631623D01*
X856093Y631690D01*
X856073Y631729D01*
X856054Y631758D01*
Y631768D01*
X855976Y631904D01*
X855889Y632011D01*
X855811Y632118D01*
X855724Y632205D01*
X855637Y632273D01*
X855549Y632331D01*
X855472Y632379D01*
X855394Y632418D01*
X855249Y632477D01*
X855132Y632506D01*
X855094Y632515D01*
D02*
G37*
G36*
X849466D02*
X849408D01*
X849291Y632506D01*
X849175Y632486D01*
X849058Y632447D01*
X848961Y632399D01*
X848777Y632282D01*
X848622Y632147D01*
X848496Y632011D01*
X848408Y631894D01*
X848369Y631846D01*
X848350Y631807D01*
X848331Y631788D01*
Y631778D01*
X848253Y631623D01*
X848195Y631448D01*
X848137Y631244D01*
X848088Y631021D01*
X848049Y630788D01*
X848010Y630546D01*
X847962Y630061D01*
X847952Y629837D01*
X847933Y629614D01*
X847923Y629420D01*
Y629245D01*
X847913Y629100D01*
Y629042D01*
Y628993D01*
Y628954D01*
Y628925D01*
Y628906D01*
Y628896D01*
Y628508D01*
X847933Y628159D01*
X847952Y627839D01*
X847981Y627547D01*
X848010Y627285D01*
X848049Y627053D01*
X848078Y626839D01*
X848117Y626665D01*
X848156Y626499D01*
X848195Y626373D01*
X848234Y626257D01*
X848263Y626170D01*
X848292Y626102D01*
X848311Y626063D01*
X848321Y626034D01*
X848331Y626024D01*
X848408Y625898D01*
X848496Y625782D01*
X848583Y625685D01*
X848670Y625597D01*
X848757Y625529D01*
X848835Y625471D01*
X848923Y625423D01*
X849000Y625384D01*
X849146Y625326D01*
X849252Y625296D01*
X849301D01*
X849330Y625287D01*
X849359D01*
X849475Y625296D01*
X849592Y625316D01*
X849699Y625355D01*
X849796Y625403D01*
X849980Y625520D01*
X850135Y625655D01*
X850262Y625782D01*
X850349Y625898D01*
X850388Y625947D01*
X850407Y625985D01*
X850417Y626005D01*
X850426Y626014D01*
X850494Y626170D01*
X850562Y626344D01*
X850611Y626548D01*
X850659Y626771D01*
X850698Y627004D01*
X850737Y627247D01*
X850785Y627732D01*
X850795Y627955D01*
X850815Y628178D01*
X850824Y628372D01*
Y628547D01*
X850834Y628692D01*
Y628751D01*
Y628799D01*
Y628838D01*
Y628877D01*
Y628886D01*
Y628896D01*
X850824Y629284D01*
X850815Y629633D01*
X850795Y629954D01*
X850766Y630245D01*
X850737Y630507D01*
X850708Y630740D01*
X850669Y630953D01*
X850630Y631138D01*
X850591Y631293D01*
X850553Y631419D01*
X850523Y631535D01*
X850494Y631623D01*
X850465Y631690D01*
X850446Y631729D01*
X850426Y631758D01*
Y631768D01*
X850349Y631904D01*
X850262Y632011D01*
X850184Y632118D01*
X850097Y632205D01*
X850009Y632273D01*
X849922Y632331D01*
X849844Y632379D01*
X849767Y632418D01*
X849621Y632477D01*
X849505Y632506D01*
X849466Y632515D01*
D02*
G37*
G36*
X1073198Y600639D02*
X1073106D01*
X1072923Y600624D01*
X1072740Y600593D01*
X1072557Y600532D01*
X1072404Y600456D01*
X1072114Y600273D01*
X1071870Y600059D01*
X1071671Y599845D01*
X1071534Y599662D01*
X1071473Y599586D01*
X1071442Y599525D01*
X1071412Y599494D01*
Y599479D01*
X1071289Y599235D01*
X1071198Y598960D01*
X1071106Y598639D01*
X1071030Y598288D01*
X1070969Y597922D01*
X1070908Y597540D01*
X1070832Y596777D01*
X1070816Y596426D01*
X1070786Y596075D01*
X1070770Y595770D01*
Y595495D01*
X1070755Y595266D01*
Y595174D01*
Y595098D01*
Y595037D01*
Y594991D01*
Y594961D01*
Y594945D01*
Y594335D01*
X1070786Y593785D01*
X1070816Y593281D01*
X1070862Y592823D01*
X1070908Y592411D01*
X1070969Y592045D01*
X1071015Y591709D01*
X1071076Y591434D01*
X1071137Y591175D01*
X1071198Y590976D01*
X1071259Y590793D01*
X1071305Y590656D01*
X1071350Y590549D01*
X1071381Y590488D01*
X1071396Y590442D01*
X1071412Y590427D01*
X1071534Y590228D01*
X1071671Y590045D01*
X1071808Y589892D01*
X1071946Y589755D01*
X1072083Y589648D01*
X1072205Y589557D01*
X1072343Y589480D01*
X1072465Y589419D01*
X1072694Y589328D01*
X1072862Y589282D01*
X1072938D01*
X1072984Y589267D01*
X1073030D01*
X1073213Y589282D01*
X1073396Y589312D01*
X1073564Y589373D01*
X1073717Y589450D01*
X1074007Y589633D01*
X1074251Y589847D01*
X1074449Y590045D01*
X1074587Y590228D01*
X1074648Y590304D01*
X1074678Y590366D01*
X1074694Y590396D01*
X1074709Y590411D01*
X1074816Y590656D01*
X1074923Y590930D01*
X1074999Y591251D01*
X1075075Y591602D01*
X1075136Y591968D01*
X1075197Y592350D01*
X1075274Y593113D01*
X1075289Y593465D01*
X1075320Y593816D01*
X1075335Y594121D01*
Y594396D01*
X1075350Y594625D01*
Y594716D01*
Y594793D01*
Y594854D01*
Y594915D01*
Y594930D01*
Y594945D01*
X1075335Y595556D01*
X1075320Y596105D01*
X1075289Y596609D01*
X1075243Y597067D01*
X1075197Y597479D01*
X1075152Y597846D01*
X1075090Y598181D01*
X1075029Y598471D01*
X1074968Y598716D01*
X1074907Y598914D01*
X1074862Y599097D01*
X1074816Y599235D01*
X1074770Y599342D01*
X1074739Y599403D01*
X1074709Y599449D01*
Y599464D01*
X1074587Y599678D01*
X1074449Y599845D01*
X1074327Y600013D01*
X1074190Y600151D01*
X1074053Y600258D01*
X1073915Y600349D01*
X1073793Y600425D01*
X1073671Y600487D01*
X1073442Y600578D01*
X1073259Y600624D01*
X1073198Y600639D01*
D02*
G37*
G36*
X1058233Y852335D02*
X1058145D01*
X1057956Y852321D01*
X1057781Y852292D01*
X1057620Y852248D01*
X1057460Y852190D01*
X1057168Y852044D01*
X1056920Y851883D01*
X1056716Y851708D01*
X1056571Y851563D01*
X1056527Y851504D01*
X1056483Y851461D01*
X1056469Y851431D01*
X1056454Y851417D01*
X1056337Y851242D01*
X1056221Y851038D01*
X1056060Y850600D01*
X1055929Y850134D01*
X1055856Y849682D01*
X1055827Y849478D01*
X1055798Y849288D01*
X1055783Y849099D01*
Y848953D01*
X1055769Y848822D01*
Y848734D01*
Y848661D01*
Y848647D01*
Y848311D01*
X1055798Y847991D01*
X1055827Y847699D01*
X1055871Y847437D01*
X1055929Y847189D01*
X1055987Y846955D01*
X1056046Y846751D01*
X1056104Y846562D01*
X1056177Y846402D01*
X1056235Y846270D01*
X1056293Y846154D01*
X1056352Y846051D01*
X1056396Y845979D01*
X1056425Y845920D01*
X1056439Y845891D01*
X1056454Y845877D01*
X1056585Y845716D01*
X1056716Y845570D01*
X1056862Y845454D01*
X1056993Y845352D01*
X1057139Y845264D01*
X1057270Y845177D01*
X1057518Y845075D01*
X1057737Y845002D01*
X1057839Y844987D01*
X1057912Y844973D01*
X1057985Y844958D01*
X1058072D01*
X1058262Y844973D01*
X1058437Y845002D01*
X1058612Y845046D01*
X1058772Y845104D01*
X1059064Y845250D01*
X1059312Y845410D01*
X1059501Y845570D01*
X1059661Y845716D01*
X1059705Y845775D01*
X1059749Y845818D01*
X1059763Y845847D01*
X1059778Y845862D01*
X1059895Y846051D01*
X1059997Y846241D01*
X1060172Y846678D01*
X1060288Y847145D01*
X1060361Y847597D01*
X1060390Y847816D01*
X1060420Y848005D01*
X1060434Y848180D01*
Y848341D01*
X1060449Y848472D01*
Y848559D01*
Y848632D01*
Y848647D01*
X1060434Y848982D01*
X1060420Y849303D01*
X1060390Y849594D01*
X1060347Y849857D01*
X1060288Y850105D01*
X1060230Y850338D01*
X1060172Y850542D01*
X1060113Y850732D01*
X1060055Y850892D01*
X1059997Y851023D01*
X1059938Y851154D01*
X1059880Y851242D01*
X1059836Y851315D01*
X1059807Y851373D01*
X1059778Y851402D01*
Y851417D01*
X1059647Y851577D01*
X1059516Y851723D01*
X1059384Y851840D01*
X1059239Y851942D01*
X1059107Y852044D01*
X1058962Y852117D01*
X1058714Y852219D01*
X1058481Y852292D01*
X1058393Y852306D01*
X1058306Y852321D01*
X1058233Y852335D01*
D02*
G37*
G36*
X854251Y740146D02*
X847488D01*
Y738478D01*
X847498Y738342D01*
X847508Y738206D01*
X847517Y738090D01*
X847527Y737983D01*
X847547Y737876D01*
X847566Y737789D01*
X847576Y737711D01*
X847595Y737633D01*
X847615Y737575D01*
X847644Y737488D01*
X847663Y737430D01*
X847673Y737410D01*
X847721Y737303D01*
X847789Y737206D01*
X847935Y737022D01*
X848109Y736867D01*
X848284Y736731D01*
X848439Y736624D01*
X848517Y736585D01*
X848575Y736547D01*
X848624Y736518D01*
X848662Y736498D01*
X848692Y736479D01*
X848701D01*
X848847Y736411D01*
X849012Y736353D01*
X849351Y736265D01*
X849710Y736197D01*
X850050Y736159D01*
X850205Y736139D01*
X850351Y736130D01*
X850477Y736120D01*
X850593D01*
X850690Y736110D01*
X850758D01*
X850797D01*
X850816D01*
X851049D01*
X851273Y736130D01*
X851476Y736139D01*
X851680Y736168D01*
X851874Y736188D01*
X852049Y736217D01*
X852214Y736256D01*
X852359Y736285D01*
X852495Y736314D01*
X852621Y736353D01*
X852718Y736382D01*
X852806Y736401D01*
X852883Y736430D01*
X852932Y736440D01*
X852961Y736459D01*
X852971D01*
X853203Y736566D01*
X853407Y736683D01*
X853582Y736799D01*
X853718Y736925D01*
X853815Y737032D01*
X853892Y737119D01*
X853931Y737177D01*
X853951Y737187D01*
Y737197D01*
X853999Y737294D01*
X854047Y737401D01*
X854125Y737624D01*
X854174Y737857D01*
X854212Y738090D01*
X854222Y738196D01*
X854232Y738293D01*
X854242Y738381D01*
Y738458D01*
X854251Y738526D01*
Y740146D01*
D02*
G37*
G36*
X848721Y720586D02*
X848692D01*
X848672D01*
X848662D01*
X848459Y720566D01*
X848274Y720527D01*
X848109Y720479D01*
X847964Y720411D01*
X847857Y720343D01*
X847770Y720294D01*
X847721Y720256D01*
X847702Y720236D01*
X847576Y720100D01*
X847479Y719955D01*
X847411Y719819D01*
X847362Y719683D01*
X847333Y719576D01*
X847324Y719480D01*
X847314Y719421D01*
Y719402D01*
X847333Y719227D01*
X847372Y719062D01*
X847440Y718917D01*
X847508Y718800D01*
X847586Y718694D01*
X847653Y718626D01*
X847692Y718577D01*
X847712Y718558D01*
X847867Y718441D01*
X848042Y718354D01*
X848206Y718286D01*
X848362Y718247D01*
X848507Y718218D01*
X848614Y718208D01*
X848662Y718199D01*
X848692D01*
X848711D01*
X848721D01*
X848934Y718218D01*
X849128Y718257D01*
X849293Y718305D01*
X849439Y718373D01*
X849545Y718441D01*
X849633Y718490D01*
X849681Y718529D01*
X849701Y718548D01*
X849827Y718684D01*
X849924Y718829D01*
X849982Y718965D01*
X850031Y719101D01*
X850060Y719218D01*
X850069Y719305D01*
X850079Y719344D01*
Y719392D01*
X850060Y719576D01*
X850021Y719742D01*
X849963Y719887D01*
X849885Y720003D01*
X849817Y720110D01*
X849759Y720188D01*
X849720Y720227D01*
X849701Y720246D01*
X849545Y720362D01*
X849371Y720440D01*
X849206Y720498D01*
X849031Y720547D01*
X848886Y720566D01*
X848827Y720576D01*
X848769D01*
X848721Y720586D01*
D02*
G37*
G36*
X852825Y720877D02*
X852786D01*
X852757D01*
X852747D01*
X852602Y720867D01*
X852466Y720857D01*
X852214Y720809D01*
X852000Y720741D01*
X851816Y720663D01*
X851729Y720624D01*
X851661Y720586D01*
X851602Y720547D01*
X851554Y720518D01*
X851515Y720489D01*
X851486Y720469D01*
X851476Y720450D01*
X851467D01*
X851379Y720372D01*
X851302Y720285D01*
X851234Y720198D01*
X851176Y720110D01*
X851088Y719936D01*
X851030Y719771D01*
X851001Y719625D01*
X850981Y719509D01*
X850972Y719470D01*
Y719412D01*
X850981Y719295D01*
X850991Y719188D01*
X851049Y718985D01*
X851127Y718810D01*
X851224Y718655D01*
X851321Y718529D01*
X851399Y718432D01*
X851457Y718373D01*
X851467Y718364D01*
X851476Y718354D01*
X851573Y718276D01*
X851670Y718208D01*
X851884Y718092D01*
X852107Y718014D01*
X852311Y717966D01*
X852495Y717927D01*
X852573Y717917D01*
X852641D01*
X852699Y717908D01*
X852738D01*
X852767D01*
X852776D01*
X852922D01*
X853067Y717927D01*
X853320Y717976D01*
X853543Y718044D01*
X853727Y718121D01*
X853805Y718170D01*
X853873Y718208D01*
X853931Y718247D01*
X853980Y718276D01*
X854018Y718305D01*
X854047Y718325D01*
X854057Y718335D01*
X854067Y718344D01*
X854154Y718422D01*
X854222Y718509D01*
X854290Y718596D01*
X854339Y718684D01*
X854426Y718858D01*
X854484Y719024D01*
X854513Y719169D01*
X854523Y719237D01*
X854533Y719285D01*
X854542Y719334D01*
Y719392D01*
X854533Y719509D01*
X854523Y719615D01*
X854465Y719809D01*
X854387Y719994D01*
X854290Y720149D01*
X854203Y720265D01*
X854125Y720362D01*
X854067Y720421D01*
X854057Y720430D01*
X854047Y720440D01*
X853951Y720518D01*
X853854Y720586D01*
X853640Y720692D01*
X853417Y720770D01*
X853213Y720818D01*
X853029Y720857D01*
X852951Y720867D01*
X852883D01*
X852825Y720877D01*
D02*
G37*
G36*
X850166Y714842D02*
X847488D01*
Y713250D01*
X847498Y713124D01*
Y712998D01*
X847508Y712891D01*
X847517Y712785D01*
X847527Y712697D01*
X847537Y712620D01*
X847547Y712552D01*
X847576Y712435D01*
X847595Y712358D01*
X847605Y712309D01*
X847615Y712299D01*
X847663Y712193D01*
X847731Y712086D01*
X847799Y712008D01*
X847877Y711931D01*
X847944Y711882D01*
X848003Y711834D01*
X848042Y711814D01*
X848051Y711805D01*
X848177Y711746D01*
X848313Y711698D01*
X848439Y711669D01*
X848565Y711640D01*
X848682Y711630D01*
X848769Y711620D01*
X848827D01*
X848837D01*
X848847D01*
X849031Y711630D01*
X849186Y711649D01*
X849332Y711688D01*
X849448Y711717D01*
X849536Y711756D01*
X849604Y711795D01*
X849652Y711814D01*
X849662Y711824D01*
X849769Y711911D01*
X849856Y711999D01*
X849933Y712096D01*
X849992Y712193D01*
X850031Y712280D01*
X850060Y712348D01*
X850079Y712387D01*
X850089Y712406D01*
X850118Y712513D01*
X850137Y712649D01*
X850147Y712794D01*
X850157Y712940D01*
X850166Y713066D01*
Y714842D01*
D02*
G37*
G36*
X854251D02*
X851205D01*
Y713173D01*
X851214Y712911D01*
X851234Y712688D01*
X851253Y712503D01*
X851282Y712348D01*
X851321Y712232D01*
X851340Y712154D01*
X851360Y712105D01*
X851369Y712086D01*
X851438Y711960D01*
X851515Y711853D01*
X851602Y711756D01*
X851690Y711678D01*
X851767Y711620D01*
X851826Y711572D01*
X851864Y711543D01*
X851884Y711533D01*
X852020Y711465D01*
X852156Y711407D01*
X852301Y711368D01*
X852437Y711348D01*
X852553Y711329D01*
X852641Y711319D01*
X852679D01*
X852709D01*
X852718D01*
X852728D01*
X852922Y711329D01*
X853097Y711358D01*
X853252Y711387D01*
X853378Y711426D01*
X853485Y711475D01*
X853562Y711504D01*
X853611Y711533D01*
X853630Y711543D01*
X853756Y711630D01*
X853863Y711727D01*
X853951Y711834D01*
X854018Y711931D01*
X854077Y712028D01*
X854115Y712096D01*
X854135Y712144D01*
X854145Y712164D01*
X854183Y712280D01*
X854203Y712416D01*
X854222Y712571D01*
X854242Y712707D01*
Y712843D01*
X854251Y712950D01*
Y714842D01*
D02*
G37*
G36*
X851137Y702868D02*
X851078D01*
X851030D01*
X850991D01*
X850952D01*
X850943D01*
X850933D01*
X850545Y702859D01*
X850195Y702849D01*
X849875Y702830D01*
X849584Y702800D01*
X849322Y702771D01*
X849089Y702742D01*
X848876Y702703D01*
X848692Y702664D01*
X848536Y702626D01*
X848410Y702587D01*
X848294Y702558D01*
X848206Y702529D01*
X848139Y702500D01*
X848100Y702480D01*
X848071Y702461D01*
X848061D01*
X847925Y702383D01*
X847818Y702296D01*
X847712Y702218D01*
X847624Y702131D01*
X847556Y702044D01*
X847498Y701956D01*
X847450Y701879D01*
X847411Y701801D01*
X847353Y701655D01*
X847324Y701539D01*
X847314Y701500D01*
Y701442D01*
X847324Y701326D01*
X847343Y701209D01*
X847382Y701093D01*
X847430Y700996D01*
X847547Y700811D01*
X847682Y700656D01*
X847818Y700530D01*
X847935Y700443D01*
X847983Y700404D01*
X848022Y700384D01*
X848042Y700365D01*
X848051D01*
X848206Y700287D01*
X848381Y700229D01*
X848585Y700171D01*
X848808Y700122D01*
X849041Y700084D01*
X849283Y700045D01*
X849769Y699996D01*
X849992Y699987D01*
X850215Y699967D01*
X850409Y699958D01*
X850584D01*
X850729Y699948D01*
X850787D01*
X850836D01*
X850875D01*
X850904D01*
X850923D01*
X850933D01*
X851321D01*
X851670Y699967D01*
X851991Y699987D01*
X852282Y700016D01*
X852544Y700045D01*
X852776Y700084D01*
X852990Y700113D01*
X853165Y700152D01*
X853329Y700190D01*
X853456Y700229D01*
X853572Y700268D01*
X853659Y700297D01*
X853727Y700326D01*
X853766Y700346D01*
X853795Y700355D01*
X853805Y700365D01*
X853931Y700443D01*
X854047Y700530D01*
X854145Y700617D01*
X854232Y700705D01*
X854300Y700792D01*
X854358Y700870D01*
X854407Y700957D01*
X854445Y701034D01*
X854503Y701180D01*
X854533Y701287D01*
Y701335D01*
X854542Y701364D01*
Y701394D01*
X854533Y701510D01*
X854513Y701626D01*
X854474Y701733D01*
X854426Y701830D01*
X854309Y702014D01*
X854174Y702170D01*
X854047Y702296D01*
X853931Y702383D01*
X853883Y702422D01*
X853844Y702441D01*
X853824Y702451D01*
X853815Y702461D01*
X853659Y702529D01*
X853485Y702597D01*
X853281Y702645D01*
X853058Y702694D01*
X852825Y702732D01*
X852582Y702771D01*
X852097Y702820D01*
X851874Y702830D01*
X851651Y702849D01*
X851457Y702859D01*
X851282D01*
X851137Y702868D01*
D02*
G37*
%LPD*%
D15*
X931993Y690877D02*
X932101Y690985D01*
X885876Y612003D02*
X890891Y617018D01*
Y617509D01*
X890935Y754377D02*
X895823D01*
X875233Y770079D02*
X890935Y754377D01*
X865343Y722627D02*
X871693Y728977D01*
X895823D01*
X871591Y745026D02*
X875433D01*
X877124Y743335D02*
X882225D01*
X868590Y748027D02*
X871591Y745026D01*
X865343Y748027D02*
X868590D01*
X882225Y743335D02*
X883884Y741677D01*
X875433Y745026D02*
X877124Y743335D01*
X919114Y741677D02*
X919382Y741945D01*
X883884Y741677D02*
X919114D01*
X847833Y770973D02*
Y808739D01*
X857516Y818422D02*
X864688D01*
X856499Y762307D02*
X869039D01*
X847833Y808739D02*
X857516Y818422D01*
X869039Y762307D02*
X875233Y768501D01*
X847833Y770973D02*
X856499Y762307D01*
X875233Y768501D02*
Y770079D01*
X871971Y811139D02*
X873471D01*
X864688Y818422D02*
X871971Y811139D01*
X960087Y731331D02*
X985614D01*
X919382Y741945D02*
X949473D01*
X960087Y731331D01*
X1020283Y724094D02*
X1025166Y728977D01*
X1057823D01*
X985614Y731331D02*
X1006404Y710541D01*
Y704963D02*
Y710541D01*
X1017218Y700999D02*
X1020283Y704064D01*
X1010368Y700999D02*
X1017218D01*
X1020283Y704064D02*
Y724094D01*
X1006404Y704963D02*
X1010368Y700999D01*
D16*
X884393Y587619D02*
D03*
Y602619D02*
D03*
X900141Y602619D02*
D03*
Y587619D02*
D03*
X899887Y626749D02*
D03*
Y611749D02*
D03*
X884647Y612003D02*
D03*
Y627003D02*
D03*
X851373Y687201D02*
D03*
X851373Y672201D02*
D03*
X875503Y728335D02*
D03*
Y743335D02*
D03*
X873471Y826139D02*
D03*
Y811139D02*
D03*
X1063209Y634877D02*
D03*
Y619877D02*
D03*
X1077179Y622671D02*
D03*
Y637671D02*
D03*
D17*
X1081363Y676907D02*
D03*
X1096363D02*
D03*
X874739Y769507D02*
D03*
X859739D02*
D03*
X1075789Y609851D02*
D03*
X1060789D02*
D03*
D28*
X1099113Y814321D02*
D03*
X1078613Y821071D02*
D03*
Y807571D02*
D03*
D51*
X1096008Y693285D02*
Y700072D01*
X1096883Y700947D01*
X1096008Y693022D02*
Y693285D01*
X1095133Y692147D02*
X1096008Y693022D01*
X1093133Y700947D02*
X1096883D01*
X1088833Y705247D02*
X1093133Y700947D01*
X899760Y626876D02*
X899887Y626749D01*
X851373Y672201D02*
X867107D01*
X884393Y654915D01*
Y627257D02*
Y654915D01*
X884647Y627003D02*
X886147D01*
X884393Y627257D02*
X884647Y627003D01*
X886147Y626876D02*
X899760D01*
X1075900Y808821D02*
Y814042D01*
X1077150Y807571D02*
X1078613D01*
X1075900Y808821D02*
X1077150Y807571D01*
X886147Y627003D02*
X907551Y648407D01*
X1023400D01*
X1031274Y656281D02*
X1032036D01*
X1023400Y648407D02*
X1031274Y656281D01*
X1080510Y717588D02*
X1088833Y709265D01*
Y705247D02*
Y709265D01*
X1080510Y717588D02*
Y719514D01*
X878093Y791555D02*
X891714Y805177D01*
X895823D01*
X877734Y791555D02*
X878093D01*
X1076493Y723530D02*
X1080510Y719514D01*
X1076493Y723530D02*
Y723691D01*
X1057823Y754377D02*
X1061573D01*
X1090133Y721447D02*
Y723447D01*
X1091109Y724423D01*
X1093274Y726588D01*
X1061573Y754377D02*
X1074605Y741345D01*
Y725579D02*
Y741345D01*
Y725579D02*
X1076493Y723691D01*
X1095567Y762918D02*
X1100670Y768021D01*
X1090133Y721447D02*
X1094584D01*
X1095359Y755065D02*
X1095567Y755273D01*
Y762918D01*
X1091109Y724423D02*
Y729525D01*
X1092085Y730501D01*
X1096609Y751291D02*
Y753815D01*
X1095359Y755065D02*
X1096609Y753815D01*
Y751291D02*
X1102963Y744937D01*
X1094584Y721447D02*
X1102963Y729826D01*
Y744937D01*
X899042Y672307D02*
X901637Y669713D01*
Y656873D02*
Y669713D01*
Y656873D02*
X905903Y652607D01*
X1001867D01*
X1011919Y662660D01*
X1034362D01*
X1050001Y647021D01*
Y631653D02*
Y647021D01*
Y631653D02*
X1052063D01*
X1060113Y623603D01*
Y621608D02*
Y623603D01*
Y621608D02*
X1061844Y619877D01*
X1060789Y609851D02*
X1060900Y609962D01*
Y619877D01*
X1072815Y619942D02*
X1075544Y622671D01*
X1077179D01*
X1061844Y619877D02*
X1061909Y619942D01*
X1072815D01*
D52*
X1096363Y676459D02*
Y676907D01*
Y676459D02*
X1097863Y674958D01*
X1100061D01*
X1100508Y674512D01*
X1074914Y672284D02*
X1078240D01*
X1081363Y675407D02*
Y676907D01*
X1074912Y672282D02*
X1074914Y672284D01*
X1078240D02*
X1081363Y675407D01*
X1062955Y672729D02*
X1074465D01*
X1057665Y678019D02*
X1062955Y672729D01*
X1074465D02*
X1074912Y672282D01*
X851373Y687201D02*
X851589Y686984D01*
Y681243D02*
Y686984D01*
Y681243D02*
X851806Y681027D01*
X876607Y599466D02*
X877053Y599913D01*
X876160D02*
X876607Y599466D01*
X861533Y604047D02*
X865667Y599913D01*
X877053D02*
X878687D01*
X879893Y601119D01*
X882893D01*
X884393Y602619D01*
X865667Y599913D02*
X876160D01*
X899887Y611749D02*
X900792D01*
X902292Y613249D02*
Y616249D01*
X900792Y611749D02*
X902292Y613249D01*
Y616249D02*
X903443Y617400D01*
Y618032D01*
X889331Y608819D02*
X889340D01*
X898742Y604018D02*
X900141Y602619D01*
X886147Y612003D02*
X889331Y608819D01*
X889340D02*
X894141Y604018D01*
X898742D01*
X884647Y612003D02*
X885876D01*
X886147D01*
X898641Y587619D02*
X900141D01*
X897141Y589119D02*
X898641Y587619D01*
X897141Y589119D02*
Y591371D01*
X884393Y602619D02*
X885893D01*
X897141Y591371D01*
X961582Y719528D02*
X961836Y719274D01*
X1057665Y678019D02*
X1057823Y678177D01*
X1101483Y815321D02*
Y820584D01*
X1099113Y814321D02*
X1100483D01*
X1101483Y815321D01*
X1080613Y821071D02*
X1083545Y818139D01*
X1078613Y821071D02*
X1080613D01*
X1085604Y818139D02*
X1086051Y817692D01*
X1083545Y818139D02*
X1085604D01*
X900141Y587619D02*
X901641D01*
X909310Y595288D01*
Y638021D01*
X1032983Y790723D02*
Y806447D01*
Y790723D02*
X1034640Y789066D01*
Y751510D02*
Y789066D01*
X1021284Y802880D02*
X1022300Y801863D01*
X1022932D01*
X993444Y802880D02*
X1021284D01*
X984116Y793552D02*
X993444Y802880D01*
X909310Y638021D02*
X914108Y642819D01*
X1028331D01*
X1035944Y650432D01*
X1021705Y790069D02*
X1026246Y785528D01*
X1003729Y790069D02*
X1021705D01*
X999664Y786004D02*
X1003729Y790069D01*
X1075523Y775401D02*
X1081509Y769415D01*
X1000125Y815321D02*
X1034386D01*
X1070250Y792414D02*
X1075523Y787141D01*
X1034386Y815321D02*
X1040250Y809457D01*
X1081509Y754891D02*
Y769415D01*
X1040250Y797686D02*
Y809457D01*
X1045523Y792414D02*
X1070250D01*
X1081509Y754891D02*
X1081859Y754541D01*
X1075523Y775401D02*
Y787141D01*
X1040250Y797686D02*
X1045523Y792414D01*
X1081087Y735629D02*
X1081999Y734716D01*
X1081087Y735629D02*
Y748671D01*
X1081967Y749551D01*
X1081999Y730587D02*
X1082085Y730501D01*
X1081999Y730587D02*
Y734716D01*
X1049909Y624540D02*
X1049955Y624494D01*
Y609909D02*
X1050001Y609863D01*
X1049955Y609909D02*
Y624494D01*
X1077312Y631512D02*
X1077446Y631379D01*
X1077179Y637671D02*
X1077312Y637537D01*
Y631512D02*
Y637537D01*
X1068261Y641892D02*
Y642524D01*
X1063209Y634877D02*
X1064245D01*
X1065745Y636377D02*
Y639377D01*
X1068261Y641892D01*
X1064245Y634877D02*
X1065745Y636377D01*
X984116Y769401D02*
Y793552D01*
X966443Y751728D02*
X984116Y769401D01*
X966443Y745645D02*
Y751728D01*
X1013171Y730041D02*
X1034640Y751510D01*
X1013171Y707766D02*
Y730041D01*
D53*
X865343Y696224D02*
Y697227D01*
X851373Y687201D02*
X851873Y687701D01*
X856820D01*
X865343Y696224D01*
X859739Y768007D02*
X860239Y767507D01*
X859739Y768007D02*
Y769507D01*
X1075789Y608351D02*
X1076289Y607851D01*
X1087599D01*
X1090133Y605317D01*
X1075789Y608351D02*
Y609851D01*
D54*
X861533Y838077D02*
Y842007D01*
Y838077D02*
X873471Y826139D01*
D55*
X1091403Y838667D02*
D03*
D57*
X861533Y842007D02*
D03*
Y792007D02*
D03*
Y654047D02*
D03*
Y604047D02*
D03*
X1090133Y605317D02*
D03*
Y655317D02*
D03*
D58*
X865343Y722627D02*
D03*
Y697227D02*
D03*
Y748027D02*
D03*
D59*
X1014625Y846945D02*
D03*
X1033625D02*
D03*
D60*
X931625Y751945D02*
D03*
Y732945D02*
D03*
D61*
X963625Y694945D02*
D03*
X989625D02*
D03*
X963625Y668945D02*
D03*
X989625D02*
D03*
D62*
X1021581Y770117D02*
D03*
X967197Y772411D02*
D03*
X875508Y588707D02*
D03*
X930113Y676416D02*
D03*
X932101Y690985D02*
D03*
X935753Y710448D02*
D03*
X948933Y665947D02*
D03*
X934685Y718690D02*
D03*
X949679Y721490D02*
D03*
X942813Y676907D02*
D03*
X936463Y669287D02*
D03*
X917413D02*
D03*
X1033342Y674522D02*
D03*
X939603Y808821D02*
D03*
Y816331D02*
D03*
X915246Y763097D02*
D03*
X1044159Y715261D02*
D03*
X996454Y795613D02*
D03*
X1100508Y674512D02*
D03*
X975714Y702307D02*
D03*
X956251Y773681D02*
D03*
X1075401Y687575D02*
D03*
X1088029Y686377D02*
D03*
X1073623Y678177D02*
D03*
X1074912Y672282D02*
D03*
X1074893Y716425D02*
D03*
X896020Y661702D02*
D03*
X977103Y683257D02*
D03*
Y662937D02*
D03*
X1095092Y709939D02*
D03*
X1022932Y801863D02*
D03*
X851806Y681027D02*
D03*
X876607Y599466D02*
D03*
X890891Y617509D02*
D03*
X903443Y618032D02*
D03*
X1035944Y650432D02*
D03*
X1032036Y656281D02*
D03*
X961429Y718868D02*
D03*
X976720Y717123D02*
D03*
X990861Y718494D02*
D03*
X1036839Y682607D02*
D03*
X1005805Y690776D02*
D03*
X997954Y753751D02*
D03*
X1101483Y820584D02*
D03*
X1075900Y814042D02*
D03*
X1086051Y817692D02*
D03*
X1042889Y693417D02*
D03*
X1080989Y709165D02*
D03*
X1077687Y693417D02*
D03*
X1087601Y632506D02*
D03*
X949280Y687060D02*
D03*
X892553Y645407D02*
D03*
X873849Y679797D02*
D03*
Y710404D02*
D03*
X859739Y813055D02*
D03*
X851548Y822015D02*
D03*
X1032983Y806447D02*
D03*
X1000125Y815321D02*
D03*
X1026246Y785528D02*
D03*
X1046699Y662937D02*
D03*
X932259Y766587D02*
D03*
X966443Y745645D02*
D03*
X948753Y751887D02*
D03*
X877734Y791555D02*
D03*
X959572Y800326D02*
D03*
X932043Y782846D02*
D03*
X976849Y772411D02*
D03*
X991708Y769871D02*
D03*
X976161Y802249D02*
D03*
X991073Y710435D02*
D03*
X999664Y786004D02*
D03*
X1013093Y784202D02*
D03*
X1088609Y745995D02*
D03*
X1100670Y768021D02*
D03*
X1095946Y741127D02*
D03*
X1088609Y739391D02*
D03*
X1016775Y673847D02*
D03*
X1049909Y624540D02*
D03*
X1049955Y617201D02*
D03*
X1077446Y631379D02*
D03*
X1068261Y642524D02*
D03*
X1030697Y721611D02*
D03*
X1013171Y707766D02*
D03*
D63*
X1050001Y633715D02*
D03*
Y609863D02*
D03*
D64*
X1092085Y730501D02*
D03*
X1082085D02*
D03*
X1085133Y692147D02*
D03*
X1095133D02*
D03*
D65*
X1090133Y721447D02*
D03*
X1083383Y700947D02*
D03*
X1096883D02*
D03*
X1095359Y754541D02*
D03*
X1081859D02*
D03*
X1088609Y775041D02*
D03*
D66*
X1057823Y678177D02*
D03*
Y703577D02*
D03*
Y728977D02*
D03*
X1057823Y754377D02*
D03*
X1057823Y830577D02*
D03*
X895823Y678177D02*
D03*
Y703577D02*
D03*
Y728977D02*
D03*
X895823Y754377D02*
D03*
X895823Y779777D02*
D03*
Y805177D02*
D03*
Y830577D02*
D03*
D67*
X1057823Y779777D02*
D03*
Y805177D02*
D03*
D68*
X1090006Y775541D02*
Y787270D01*
X1091403Y788667D01*
X1089506Y775041D02*
X1090006Y775541D01*
X1088609Y775041D02*
X1089506D01*
D69*
X1070061Y676899D02*
D03*
D70*
X1091403Y788667D02*
D03*
M02*
