G04*
G04 #@! TF.GenerationSoftware,Altium Limited,Altium Designer,22.6.1 (34)*
G04*
G04 Layer_Color=16711935*
%FSLAX44Y44*%
%MOMM*%
G71*
G04*
G04 #@! TF.SameCoordinates,CFF22713-5BA4-4343-9F65-DF9A29BEA822*
G04*
G04*
G04 #@! TF.FilePolarity,Negative*
G04*
G01*
G75*
G04:AMPARAMS|DCode=30|XSize=0.8032mm|YSize=1.1032mm|CornerRadius=0.2516mm|HoleSize=0mm|Usage=FLASHONLY|Rotation=90.000|XOffset=0mm|YOffset=0mm|HoleType=Round|Shape=RoundedRectangle|*
%AMROUNDEDRECTD30*
21,1,0.8032,0.6000,0,0,90.0*
21,1,0.3000,1.1032,0,0,90.0*
1,1,0.5032,0.3000,0.1500*
1,1,0.5032,0.3000,-0.1500*
1,1,0.5032,-0.3000,-0.1500*
1,1,0.5032,-0.3000,0.1500*
%
%ADD30ROUNDEDRECTD30*%
G04:AMPARAMS|DCode=31|XSize=0.8032mm|YSize=1.1032mm|CornerRadius=0.2516mm|HoleSize=0mm|Usage=FLASHONLY|Rotation=180.000|XOffset=0mm|YOffset=0mm|HoleType=Round|Shape=RoundedRectangle|*
%AMROUNDEDRECTD31*
21,1,0.8032,0.6000,0,0,180.0*
21,1,0.3000,1.1032,0,0,180.0*
1,1,0.5032,-0.1500,0.3000*
1,1,0.5032,0.1500,0.3000*
1,1,0.5032,0.1500,-0.3000*
1,1,0.5032,-0.1500,-0.3000*
%
%ADD31ROUNDEDRECTD31*%
%ADD42R,1.1032X0.7032*%
%ADD44O,2.4032X3.1032*%
%ADD46O,2.4032X3.2032*%
%ADD47C,1.6032*%
%ADD48R,1.4032X2.4032*%
%ADD49R,2.4032X1.4032*%
%ADD50C,1.9032*%
%ADD71R,1.0032X1.0032*%
G04:AMPARAMS|DCode=72|XSize=0.7032mm|YSize=0.8232mm|CornerRadius=0.1641mm|HoleSize=0mm|Usage=FLASHONLY|Rotation=0.000|XOffset=0mm|YOffset=0mm|HoleType=Round|Shape=RoundedRectangle|*
%AMROUNDEDRECTD72*
21,1,0.7032,0.4950,0,0,0.0*
21,1,0.3750,0.8232,0,0,0.0*
1,1,0.3282,0.1875,-0.2475*
1,1,0.3282,-0.1875,-0.2475*
1,1,0.3282,-0.1875,0.2475*
1,1,0.3282,0.1875,0.2475*
%
%ADD72ROUNDEDRECTD72*%
%ADD73R,0.7032X1.1032*%
G04:AMPARAMS|DCode=74|XSize=2.9532mm|YSize=2.2032mm|CornerRadius=0.6016mm|HoleSize=0mm|Usage=FLASHONLY|Rotation=0.000|XOffset=0mm|YOffset=0mm|HoleType=Round|Shape=RoundedRectangle|*
%AMROUNDEDRECTD74*
21,1,2.9532,1.0000,0,0,0.0*
21,1,1.7500,2.2032,0,0,0.0*
1,1,1.2032,0.8750,-0.5000*
1,1,1.2032,-0.8750,-0.5000*
1,1,1.2032,-0.8750,0.5000*
1,1,1.2032,0.8750,0.5000*
%
%ADD74ROUNDEDRECTD74*%
G04:AMPARAMS|DCode=75|XSize=2.9532mm|YSize=2.0032mm|CornerRadius=0.5516mm|HoleSize=0mm|Usage=FLASHONLY|Rotation=0.000|XOffset=0mm|YOffset=0mm|HoleType=Round|Shape=RoundedRectangle|*
%AMROUNDEDRECTD75*
21,1,2.9532,0.9000,0,0,0.0*
21,1,1.8500,2.0032,0,0,0.0*
1,1,1.1032,0.9250,-0.4500*
1,1,1.1032,-0.9250,-0.4500*
1,1,1.1032,-0.9250,0.4500*
1,1,1.1032,0.9250,0.4500*
%
%ADD75ROUNDEDRECTD75*%
%ADD76O,2.4032X3.0032*%
D30*
X884393Y587619D02*
D03*
Y602619D02*
D03*
X900141Y602619D02*
D03*
Y587619D02*
D03*
X899887Y626749D02*
D03*
Y611749D02*
D03*
X884647Y612003D02*
D03*
Y627003D02*
D03*
X851373Y687201D02*
D03*
X851373Y672201D02*
D03*
X875503Y728335D02*
D03*
Y743335D02*
D03*
X873471Y826139D02*
D03*
Y811139D02*
D03*
X1063209Y634877D02*
D03*
Y619877D02*
D03*
X1077179Y622671D02*
D03*
Y637671D02*
D03*
D31*
X1081363Y676907D02*
D03*
X1096363D02*
D03*
X874739Y769507D02*
D03*
X859739D02*
D03*
X1075789Y609851D02*
D03*
X1060789D02*
D03*
D42*
X1099113Y814321D02*
D03*
X1078613Y821071D02*
D03*
Y807571D02*
D03*
D44*
X1091403Y838667D02*
D03*
D46*
X861533Y842007D02*
D03*
Y792007D02*
D03*
Y654047D02*
D03*
Y604047D02*
D03*
X1090133Y605317D02*
D03*
Y655317D02*
D03*
D47*
X865343Y722627D02*
D03*
Y697227D02*
D03*
Y748027D02*
D03*
D48*
X1014625Y846945D02*
D03*
X1033625D02*
D03*
D49*
X931625Y751945D02*
D03*
Y732945D02*
D03*
D50*
X963625Y694945D02*
D03*
X989625D02*
D03*
X963625Y668945D02*
D03*
X989625D02*
D03*
D71*
X1050001Y633715D02*
D03*
Y609863D02*
D03*
D72*
X1092085Y730501D02*
D03*
X1082085D02*
D03*
X1085133Y692147D02*
D03*
X1095133D02*
D03*
D73*
X1090133Y721447D02*
D03*
X1083383Y700947D02*
D03*
X1096883D02*
D03*
X1095359Y754541D02*
D03*
X1081859D02*
D03*
X1088609Y775041D02*
D03*
D74*
X1057823Y678177D02*
D03*
Y703577D02*
D03*
Y728977D02*
D03*
X1057823Y754377D02*
D03*
X1057823Y830577D02*
D03*
X895823Y678177D02*
D03*
Y703577D02*
D03*
Y728977D02*
D03*
X895823Y754377D02*
D03*
X895823Y779777D02*
D03*
Y805177D02*
D03*
Y830577D02*
D03*
D75*
X1057823Y779777D02*
D03*
Y805177D02*
D03*
D76*
X1091403Y788667D02*
D03*
M02*
