M48
;Layer_Color=9474304
;FILE_FORMAT=2:4
METRIC,LZ
;TYPE=PLATED
T1F00S00C0.2500
T2F00S00C0.2540
T3F00S00C1.0000
T4F00S00C1.4000
;TYPE=NON_PLATED
T5F00S00C0.8000
%
T01
X875508Y588707
X890891Y617509
X903443Y618032
X892553Y645407
X89602Y661702
X917413Y669287
X936463
X930113Y676416
X942813Y676907
X94928Y68706
X932101Y690985
X935753Y710448
X934685Y71869
X949679Y72149
X961429Y718868
X97672Y717123
X990861Y718494
X991073Y710435
X975714Y702307
X977103Y683257
Y662937
X948933Y665947
X1016775Y673847
X1033342Y674522
X1036839Y682607
X1042889Y693417
X1044159Y715261
X1030697Y721611
X1074893Y716425
X1080989Y709165
X1095092Y709939
X1088029Y686377
X1075401Y687575
X1077687Y693417
X1073623Y678177
X1074912Y672282
X1100508Y674512
X1087601Y632506
X1077446Y631379
X1068261Y642524
X1049909Y62454
X1049955Y617201
X1046699Y662937
X1005805Y690776
X997954Y753751
X991708Y769871
X976849Y772411
X967197
X956251Y773681
X948753Y751887
X966443Y745645
X932259Y766587
X932043Y782846
X915246Y763097
X873849Y710404
Y679797
X851806Y681027
X999664Y786004
X1013093Y784202
X1026246Y785528
X1021581Y770117
X110067Y768021
X1095946Y741127
X1088609Y739391
Y745995
X10759Y814042
X1101483Y820584
X1032983Y806447
X1022932Y801863
X996454Y795613
X1000125Y815321
X976161Y802249
X959572Y800326
X939603Y808821
Y816331
X859739Y813055
X851548Y822015
T02
X876607Y599466
X877734Y791555
X1013171Y707766
X1032036Y656281
X1035944Y650432
X1086051Y817692
T03
X865343Y697227
Y722627
Y748027
T04
X861533Y604047
Y654047
Y792007
X1091403Y788667
X1090133Y655317
Y605317
X1091403Y838667
X861533Y842007
T05
X963625Y668945
Y694945
X989625
Y668945
X931625Y732945
Y751945
X1014625Y846945
X1033625
M30
